<svg xmlns="http://www.w3.org/2000/svg" xmlns:v="https://svgstorm.com"
viewBox = "0 0 512 512"
width="512"
height="512">
<g fill="None" fill-opacity="0.0" stroke="#000000" stroke-opacity="0.01" stroke-width="0.3"><path d="
M 0.00 512.00 
L 159.00 512.00
C 140.05 506.99 118.16 504.97 98.98 500.02 C 79.79 495.08 56.87 494.53 38.92 487.08 C 20.98 479.62 22.64 447.58 40.70 440.70 C 58.76 433.82 82.94 446.75 102.00 447.00
C 103.40 435.07 106.06 422.75 108.00 411.00 C 109.93 399.25 113.30 386.54 114.98 374.98 C 116.65 363.41 120.18 350.42 121.33 339.33 C 122.48 328.24 106.64 327.54 101.23 317.77 C 95.82 308.00 88.45 302.97 85.23 291.77 C 82.01 280.57 77.70 269.83 76.22 257.78 C 74.75 245.73 73.76 231.02 74.78 218.78 C 75.80 206.54 76.20 191.42 79.00 180.00 C 81.80 168.57 84.25 156.97 87.32 146.32 C 90.39 135.67 92.56 127.27 95.76 119.75 C 98.95 112.23 98.90 106.70 102.19 99.75 C 105.48 92.79 107.47 87.39 110.19 80.75 C 112.91 74.10 116.21 69.13 118.19 62.75 C 120.17 56.37 126.23 52.15 128.71 44.70 C 131.19 37.25 140.41 37.44 148.25 39.80 C 156.09 42.16 162.27 41.60 169.75 43.40 C 177.23 45.19 183.81 46.61 191.25 47.80 C 198.69 48.99 205.61 51.30 213.23 52.77 C 220.85 54.25 226.48 54.26 234.25 56.19 C 242.02 58.13 246.10 63.22 245.80 73.25 C 245.50 83.27 247.25 97.64 247.00 110.00 C 246.75 122.36 247.33 139.60 246.02 152.02 C 244.72 164.45 245.16 178.77 242.67 190.67 C 240.18 202.57 239.01 215.69 236.00 227.00 C 232.99 238.32 229.27 247.81 225.22 258.22 C 221.18 268.63 216.31 277.49 211.08 287.08 C 205.85 296.67 199.64 302.03 192.75 310.75 C 185.86 319.47 177.29 323.16 168.92 329.92 C 160.56 336.69 142.81 332.36 140.22 343.22 C 137.63 354.09 136.22 368.29 133.67 379.67 C 131.12 391.05 129.44 403.37 127.02 415.02 C 124.60 426.68 122.97 439.41 120.00 451.00
C 138.46 457.85 162.49 453.48 178.25 466.75 C 194.01 480.03 182.37 510.55 163.00 512.00
L 350.00 512.00
C 340.49 510.14 332.30 505.13 328.70 495.31 C 325.09 485.48 326.55 472.88 334.75 465.75 C 342.95 458.62 354.87 459.27 364.22 456.22 C 373.57 453.17 391.83 456.51 390.22 444.78 C 388.61 433.05 385.67 423.44 384.01 411.99 C 382.35 400.54 378.96 390.97 377.67 379.33 C 376.38 367.69 371.45 359.25 371.07 346.93 C 370.70 334.60 356.10 336.63 346.78 332.22 C 337.45 327.82 330.64 323.54 323.25 316.75 C 315.86 309.95 311.19 303.55 305.25 295.75 C 299.30 287.95 295.96 279.73 291.08 270.92 C 286.19 262.12 283.59 252.77 280.02 242.98 C 276.46 233.18 274.17 222.71 272.00 212.00 C 269.84 201.29 268.46 189.30 267.00 178.00 C 265.54 166.70 264.75 153.66 264.00 142.00 C 263.25 130.34 263.34 116.11 264.00 105.00 C 264.65 93.89 265.29 80.80 265.60 72.25 C 265.92 63.70 268.71 57.43 276.75 56.40 C 284.79 55.36 288.70 53.30 296.25 52.20 C 303.79 51.10 308.91 49.62 315.75 48.61 C 322.60 47.59 328.83 45.59 335.75 44.41 C 342.68 43.23 348.96 42.05 355.30 40.29 C 361.64 38.53 370.32 38.93 378.00 38.00
C 394.11 64.01 402.76 84.08 412.57 110.77 C 422.38 137.45 434.63 179.84 436.00 221.00 C 437.37 262.16 429.15 314.20 388.00 334.00
C 395.92 371.51 403.32 409.15 410.00 447.00
C 428.79 446.96 452.71 433.91 470.68 440.32 C 488.65 446.73 491.66 477.95 474.25 486.25 C 456.85 494.56 434.03 494.76 414.93 499.93 C 395.83 505.09 372.75 506.20 354.00 512.00
L 512.00 512.00
L 512.00 0.00
L 0.00 0.00
L 0.00 512.00
M 260.00 1.00 
C 267.68 9.13 262.66 31.27 263.22 43.22 C 263.78 55.17 245.63 56.14 244.60 44.25 C 243.57 32.37 239.59 9.44 248.00 1.00
C 251.44 1.32 256.54 1.32 260.00 1.00
M 208.00 2.00 
C 218.48 0.61 221.22 15.05 226.75 20.25 C 232.28 25.46 234.04 41.29 222.77 42.21 C 211.50 43.13 210.68 30.17 204.91 25.08 C 199.15 19.99 196.01 3.60 208.00 2.00
M 298.00 2.00 
C 310.25 -0.28 313.81 16.97 306.61 22.75 C 299.41 28.54 300.12 39.91 289.75 42.80 C 279.38 45.69 274.90 28.43 281.19 23.75 C 287.48 19.07 288.58 3.75 298.00 2.00 Z"/>
</g>
<g fill="None" fill-opacity="0.0" stroke="#000000" stroke-opacity="0.95" stroke-width="0.3"><path d="
M 260.00 1.00 
C 256.54 1.32 251.44 1.32 248.00 1.00
C 239.59 9.44 243.57 32.37 244.60 44.25 C 245.63 56.14 263.78 55.17 263.22 43.22 C 262.66 31.27 267.68 9.13 260.00 1.00 Z"/>
</g>
<g fill="None" fill-opacity="0.0" stroke="#000000" stroke-opacity="0.96" stroke-width="0.3"><path d="
M 208.00 2.00 
C 196.01 3.60 199.15 19.99 204.91 25.08 C 210.68 30.17 211.50 43.13 222.77 42.21 C 234.04 41.29 232.28 25.46 226.75 20.25 C 221.22 15.05 218.48 0.61 208.00 2.00 Z"/>
</g>
<g fill="None" fill-opacity="0.0" stroke="#000000" stroke-opacity="0.96" stroke-width="0.3"><path d="
M 298.00 2.00 
C 288.58 3.75 287.48 19.07 281.19 23.75 C 274.90 28.43 279.38 45.69 289.75 42.80 C 300.12 39.91 299.41 28.54 306.61 22.75 C 313.81 16.97 310.25 -0.28 298.00 2.00 Z"/>
</g>
<g fill="None" fill-opacity="0.0" stroke="#000000" stroke-opacity="1.00" stroke-width="0.3"><path d="
M 159.00 512.00 
L 163.00 512.00
C 182.37 510.55 194.01 480.03 178.25 466.75 C 162.49 453.48 138.46 457.85 120.00 451.00
C 122.97 439.41 124.60 426.68 127.02 415.02 C 129.44 403.37 131.12 391.05 133.67 379.67 C 136.22 368.29 137.63 354.09 140.22 343.22 C 142.81 332.36 160.56 336.69 168.92 329.92 C 177.29 323.16 185.86 319.47 192.75 310.75 C 199.64 302.03 205.85 296.67 211.08 287.08 C 216.31 277.49 221.18 268.63 225.22 258.22 C 229.27 247.81 232.99 238.32 236.00 227.00 C 239.01 215.69 240.18 202.57 242.67 190.67 C 245.16 178.77 244.72 164.45 246.02 152.02 C 247.33 139.60 246.75 122.36 247.00 110.00 C 247.25 97.64 245.50 83.27 245.80 73.25 C 246.10 63.22 242.02 58.13 234.25 56.19 C 226.48 54.26 220.85 54.25 213.23 52.77 C 205.61 51.30 198.69 48.99 191.25 47.80 C 183.81 46.61 177.23 45.19 169.75 43.40 C 162.27 41.60 156.09 42.16 148.25 39.80 C 140.41 37.44 131.19 37.25 128.71 44.70 C 126.23 52.15 120.17 56.37 118.19 62.75 C 116.21 69.13 112.91 74.10 110.19 80.75 C 107.47 87.39 105.48 92.79 102.19 99.75 C 98.90 106.70 98.95 112.23 95.76 119.75 C 92.56 127.27 90.39 135.67 87.32 146.32 C 84.25 156.97 81.80 168.57 79.00 180.00 C 76.20 191.42 75.80 206.54 74.78 218.78 C 73.76 231.02 74.75 245.73 76.22 257.78 C 77.70 269.83 82.01 280.57 85.23 291.77 C 88.45 302.97 95.82 308.00 101.23 317.77 C 106.64 327.54 122.48 328.24 121.33 339.33 C 120.18 350.42 116.65 363.41 114.98 374.98 C 113.30 386.54 109.93 399.25 108.00 411.00 C 106.06 422.75 103.40 435.07 102.00 447.00
C 82.94 446.75 58.76 433.82 40.70 440.70 C 22.64 447.58 20.98 479.62 38.92 487.08 C 56.87 494.53 79.79 495.08 98.98 500.02 C 118.16 504.97 140.05 506.99 159.00 512.00
M 226.00 75.00 
C 225.18 85.07 227.67 94.45 227.78 104.22 C 227.89 113.99 228.89 126.35 228.00 136.00 C 227.11 145.65 226.85 155.55 226.00 165.00 C 225.15 174.45 224.13 184.21 222.07 193.07 C 220.01 201.94 221.27 211.23 217.22 219.22 C 213.18 227.21 198.15 221.82 189.00 223.00 C 179.85 224.18 167.94 222.47 158.00 223.00 C 148.06 223.53 136.29 222.72 126.00 223.00 C 115.71 223.28 104.38 222.79 94.00 223.00
C 97.33 164.74 117.39 110.43 143.00 59.00
C 170.69 64.20 198.24 69.96 226.00 75.00
M 210.00 243.00 
C 203.25 263.42 192.05 282.22 177.75 298.75 C 163.44 315.27 135.91 326.19 118.75 308.25 C 101.60 290.31 96.59 266.92 95.00 243.00
C 133.33 243.00 171.67 243.00 210.00 243.00
M 55.00 458.00 
C 63.04 458.85 71.43 461.78 80.00 463.00 C 88.58 464.22 97.09 467.07 106.00 468.00 C 114.91 468.92 122.35 472.70 131.67 473.33 C 140.99 473.96 147.58 478.27 157.67 478.33 C 167.76 478.39 167.61 492.93 157.78 491.22 C 147.95 489.51 141.57 488.14 132.33 486.67 C 123.09 485.21 115.96 482.28 106.78 481.22 C 97.60 480.17 89.98 477.31 80.78 476.22 C 71.57 475.13 64.52 471.38 54.78 471.22 C 45.03 471.07 42.43 456.68 55.00 458.00 Z"/>
</g>
<g fill="None" fill-opacity="0.0" stroke="#000000" stroke-opacity="1.00" stroke-width="0.3"><path d="
M 350.00 512.00 
L 354.00 512.00
C 372.75 506.20 395.83 505.09 414.93 499.93 C 434.03 494.76 456.85 494.56 474.25 486.25 C 491.66 477.95 488.65 446.73 470.68 440.32 C 452.71 433.91 428.79 446.96 410.00 447.00
C 403.32 409.15 395.92 371.51 388.00 334.00
C 429.15 314.20 437.37 262.16 436.00 221.00 C 434.63 179.84 422.38 137.45 412.57 110.77 C 402.76 84.08 394.11 64.01 378.00 38.00
C 370.32 38.93 361.64 38.53 355.30 40.29 C 348.96 42.05 342.68 43.23 335.75 44.41 C 328.83 45.59 322.60 47.59 315.75 48.61 C 308.91 49.62 303.79 51.10 296.25 52.20 C 288.70 53.30 284.79 55.36 276.75 56.40 C 268.71 57.43 265.92 63.70 265.60 72.25 C 265.29 80.80 264.65 93.89 264.00 105.00 C 263.34 116.11 263.25 130.34 264.00 142.00 C 264.75 153.66 265.54 166.70 267.00 178.00 C 268.46 189.30 269.84 201.29 272.00 212.00 C 274.17 222.71 276.46 233.18 280.02 242.98 C 283.59 252.77 286.19 262.12 291.08 270.92 C 295.96 279.73 299.30 287.95 305.25 295.75 C 311.19 303.55 315.86 309.95 323.25 316.75 C 330.64 323.54 337.45 327.82 346.78 332.22 C 356.10 336.63 370.70 334.60 371.07 346.93 C 371.45 359.25 376.38 367.69 377.67 379.33 C 378.96 390.97 382.35 400.54 384.01 411.99 C 385.67 423.44 388.61 433.05 390.22 444.78 C 391.83 456.51 373.57 453.17 364.22 456.22 C 354.87 459.27 342.95 458.62 334.75 465.75 C 326.55 472.88 325.09 485.48 328.70 495.31 C 332.30 505.13 340.49 510.14 350.00 512.00
M 368.00 59.00 
C 389.10 101.56 405.88 146.10 414.00 193.00
C 372.00 193.00 330.00 193.00 288.00 193.00
C 282.54 154.51 281.96 114.29 285.00 75.00
C 312.71 69.91 340.28 64.18 368.00 59.00
M 416.00 213.00 
C 417.88 245.17 415.64 276.75 396.25 303.25 C 376.85 329.74 342.32 314.10 326.25 290.75 C 310.17 267.40 297.10 241.11 292.00 213.00
C 333.33 213.00 374.67 213.00 416.00 213.00
M 463.00 458.00 
C 471.97 461.97 462.20 473.23 454.98 471.98 C 447.75 470.72 438.78 475.80 431.33 476.33 C 423.87 476.85 415.57 479.87 407.99 480.99 C 400.41 482.12 392.05 483.40 384.78 485.78 C 377.51 488.15 367.72 486.35 360.99 489.99 C 354.26 493.63 342.44 489.45 346.78 481.78 C 351.12 474.10 361.94 478.63 368.67 475.67 C 375.40 472.71 384.84 473.14 392.02 471.02 C 399.21 468.91 408.32 467.78 415.67 466.67 C 423.02 465.56 431.84 461.99 439.01 462.01 C 446.18 462.03 456.27 455.02 463.00 458.00 Z"/>
</g>
<g fill="None" fill-opacity="0.0" stroke="#C6F2FC" stroke-opacity="1.00" stroke-width="0.3"><path d="
M 226.00 75.00 
C 198.24 69.96 170.69 64.20 143.00 59.00
C 117.39 110.43 97.33 164.74 94.00 223.00
C 104.38 222.79 115.71 223.28 126.00 223.00 C 136.29 222.72 148.06 223.53 158.00 223.00 C 167.94 222.47 179.85 224.18 189.00 223.00 C 198.15 221.82 213.18 227.21 217.22 219.22 C 221.27 211.23 220.01 201.94 222.07 193.07 C 224.13 184.21 225.15 174.45 226.00 165.00 C 226.85 155.55 227.11 145.65 228.00 136.00 C 228.89 126.35 227.89 113.99 227.78 104.22 C 227.67 94.45 225.18 85.07 226.00 75.00
M 206.00 92.00 
C 219.62 93.45 213.89 112.80 215.00 124.00 C 216.11 135.20 213.05 151.20 213.00 164.00 C 212.95 176.80 191.70 175.90 193.00 163.00 C 194.30 150.10 194.84 134.37 195.00 123.00 C 195.16 111.63 190.75 90.37 206.00 92.00
M 200.00 194.00 
C 212.72 196.49 206.53 218.18 194.33 213.67 C 182.13 209.16 188.17 191.68 200.00 194.00 Z"/>
</g>
<g fill="None" fill-opacity="0.0" stroke="#C6F3FC" stroke-opacity="1.00" stroke-width="0.3"><path d="
M 368.00 59.00 
C 340.28 64.18 312.71 69.91 285.00 75.00
C 281.96 114.29 282.54 154.51 288.00 193.00
C 330.00 193.00 372.00 193.00 414.00 193.00
C 405.88 146.10 389.10 101.56 368.00 59.00
M 359.00 75.00 
C 370.35 78.44 363.80 98.79 351.98 94.02 C 340.15 89.26 345.80 70.99 359.00 75.00
M 374.00 112.00 
C 385.53 115.50 380.68 134.47 387.78 142.22 C 394.87 149.98 391.90 174.14 378.33 168.67 C 364.76 163.20 372.48 146.46 365.07 137.93 C 357.67 129.40 358.32 107.24 374.00 112.00 Z"/>
</g>
<g fill="None" fill-opacity="0.0" stroke="#000000" stroke-opacity="1.00" stroke-width="0.3"><path d="
M 359.00 75.00 
C 345.80 70.99 340.15 89.26 351.98 94.02 C 363.80 98.79 370.35 78.44 359.00 75.00 Z"/>
</g>
<g fill="None" fill-opacity="0.0" stroke="#000000" stroke-opacity="1.00" stroke-width="0.3"><path d="
M 206.00 92.00 
C 190.75 90.37 195.16 111.63 195.00 123.00 C 194.84 134.37 194.30 150.10 193.00 163.00 C 191.70 175.90 212.95 176.80 213.00 164.00 C 213.05 151.20 216.11 135.20 215.00 124.00 C 213.89 112.80 219.62 93.45 206.00 92.00 Z"/>
</g>
<g fill="None" fill-opacity="0.0" stroke="#000000" stroke-opacity="1.00" stroke-width="0.3"><path d="
M 374.00 112.00 
C 358.32 107.24 357.67 129.40 365.07 137.93 C 372.48 146.46 364.76 163.20 378.33 168.67 C 391.90 174.14 394.87 149.98 387.78 142.22 C 380.68 134.47 385.53 115.50 374.00 112.00 Z"/>
</g>
<g fill="None" fill-opacity="0.0" stroke="#000000" stroke-opacity="1.00" stroke-width="0.3"><path d="
M 200.00 194.00 
C 188.17 191.68 182.13 209.16 194.33 213.67 C 206.53 218.18 212.72 196.49 200.00 194.00 Z"/>
</g>
<g fill="None" fill-opacity="0.0" stroke="#F4C76D" stroke-opacity="1.00" stroke-width="0.3"><path d="
M 416.00 213.00 
C 374.67 213.00 333.33 213.00 292.00 213.00
C 297.10 241.11 310.17 267.40 326.25 290.75 C 342.32 314.10 376.85 329.74 396.25 303.25 C 415.64 276.75 417.88 245.17 416.00 213.00 Z"/>
</g>
<g fill="None" fill-opacity="0.0" stroke="#F3C76D" stroke-opacity="1.00" stroke-width="0.3"><path d="
M 210.00 243.00 
C 171.67 243.00 133.33 243.00 95.00 243.00
C 96.59 266.92 101.60 290.31 118.75 308.25 C 135.91 326.19 163.44 315.27 177.75 298.75 C 192.05 282.22 203.25 263.42 210.00 243.00 Z"/>
</g>
<g fill="None" fill-opacity="0.0" stroke="#C3EEF8" stroke-opacity="1.00" stroke-width="0.3"><path d="
M 55.00 458.00 
C 42.43 456.68 45.03 471.07 54.78 471.22 C 64.52 471.38 71.57 475.13 80.78 476.22 C 89.98 477.31 97.60 480.17 106.78 481.22 C 115.96 482.28 123.09 485.21 132.33 486.67 C 141.57 488.14 147.95 489.51 157.78 491.22 C 167.61 492.93 167.76 478.39 157.67 478.33 C 147.58 478.27 140.99 473.96 131.67 473.33 C 122.35 472.70 114.91 468.92 106.00 468.00 C 97.09 467.07 88.58 464.22 80.00 463.00 C 71.43 461.78 63.04 458.85 55.00 458.00 Z"/>
</g>
<g fill="None" fill-opacity="0.0" stroke="#C3EEF8" stroke-opacity="1.00" stroke-width="0.3"><path d="
M 463.00 458.00 
C 456.27 455.02 446.18 462.03 439.01 462.01 C 431.84 461.99 423.02 465.56 415.67 466.67 C 408.32 467.78 399.21 468.91 392.02 471.02 C 384.84 473.14 375.40 472.71 368.67 475.67 C 361.94 478.63 351.12 474.10 346.78 481.78 C 342.44 489.45 354.26 493.63 360.99 489.99 C 367.72 486.35 377.51 488.15 384.78 485.78 C 392.05 483.40 400.41 482.12 407.99 480.99 C 415.57 479.87 423.87 476.85 431.33 476.33 C 438.78 475.80 447.75 470.72 454.98 471.98 C 462.20 473.23 471.97 461.97 463.00 458.00 Z"/>
</g>
<g fill="#000000" fill-opacity="0.01" stroke="None">
<path d="
M 0.00 512.00 
L 159.00 512.00
C 140.05 506.99 118.16 504.97 98.98 500.02 C 79.79 495.08 56.87 494.53 38.92 487.08 C 20.98 479.62 22.64 447.58 40.70 440.70 C 58.76 433.82 82.94 446.75 102.00 447.00
C 103.40 435.07 106.06 422.75 108.00 411.00 C 109.93 399.25 113.30 386.54 114.98 374.98 C 116.65 363.41 120.18 350.42 121.33 339.33 C 122.48 328.24 106.64 327.54 101.23 317.77 C 95.82 308.00 88.45 302.97 85.23 291.77 C 82.01 280.57 77.70 269.83 76.22 257.78 C 74.75 245.73 73.76 231.02 74.78 218.78 C 75.80 206.54 76.20 191.42 79.00 180.00 C 81.80 168.57 84.25 156.97 87.32 146.32 C 90.39 135.67 92.56 127.27 95.76 119.75 C 98.95 112.23 98.90 106.70 102.19 99.75 C 105.48 92.79 107.47 87.39 110.19 80.75 C 112.91 74.10 116.21 69.13 118.19 62.75 C 120.17 56.37 126.23 52.15 128.71 44.70 C 131.19 37.25 140.41 37.44 148.25 39.80 C 156.09 42.16 162.27 41.60 169.75 43.40 C 177.23 45.19 183.81 46.61 191.25 47.80 C 198.69 48.99 205.61 51.30 213.23 52.77 C 220.85 54.25 226.48 54.26 234.25 56.19 C 242.02 58.13 246.10 63.22 245.80 73.25 C 245.50 83.27 247.25 97.64 247.00 110.00 C 246.75 122.36 247.33 139.60 246.02 152.02 C 244.72 164.45 245.16 178.77 242.67 190.67 C 240.18 202.57 239.01 215.69 236.00 227.00 C 232.99 238.32 229.27 247.81 225.22 258.22 C 221.18 268.63 216.31 277.49 211.08 287.08 C 205.85 296.67 199.64 302.03 192.75 310.75 C 185.86 319.47 177.29 323.16 168.92 329.92 C 160.56 336.69 142.81 332.36 140.22 343.22 C 137.63 354.09 136.22 368.29 133.67 379.67 C 131.12 391.05 129.44 403.37 127.02 415.02 C 124.60 426.68 122.97 439.41 120.00 451.00
C 138.46 457.85 162.49 453.48 178.25 466.75 C 194.01 480.03 182.37 510.55 163.00 512.00
L 350.00 512.00
C 340.49 510.14 332.30 505.13 328.70 495.31 C 325.09 485.48 326.55 472.88 334.75 465.75 C 342.95 458.62 354.87 459.27 364.22 456.22 C 373.57 453.17 391.83 456.51 390.22 444.78 C 388.61 433.05 385.67 423.44 384.01 411.99 C 382.35 400.54 378.96 390.97 377.67 379.33 C 376.38 367.69 371.45 359.25 371.07 346.93 C 370.70 334.60 356.10 336.63 346.78 332.22 C 337.45 327.82 330.64 323.54 323.25 316.75 C 315.86 309.95 311.19 303.55 305.25 295.75 C 299.30 287.95 295.96 279.73 291.08 270.92 C 286.19 262.12 283.59 252.77 280.02 242.98 C 276.46 233.18 274.17 222.71 272.00 212.00 C 269.84 201.29 268.46 189.30 267.00 178.00 C 265.54 166.70 264.75 153.66 264.00 142.00 C 263.25 130.34 263.34 116.11 264.00 105.00 C 264.65 93.89 265.29 80.80 265.60 72.25 C 265.92 63.70 268.71 57.43 276.75 56.40 C 284.79 55.36 288.70 53.30 296.25 52.20 C 303.79 51.10 308.91 49.62 315.75 48.61 C 322.60 47.59 328.83 45.59 335.75 44.41 C 342.68 43.23 348.96 42.05 355.30 40.29 C 361.64 38.53 370.32 38.93 378.00 38.00
C 394.11 64.01 402.76 84.08 412.57 110.77 C 422.38 137.45 434.63 179.84 436.00 221.00 C 437.37 262.16 429.15 314.20 388.00 334.00
C 395.92 371.51 403.32 409.15 410.00 447.00
C 428.79 446.96 452.71 433.91 470.68 440.32 C 488.65 446.73 491.66 477.95 474.25 486.25 C 456.85 494.56 434.03 494.76 414.93 499.93 C 395.83 505.09 372.75 506.20 354.00 512.00
L 512.00 512.00
L 512.00 0.00
L 0.00 0.00
L 0.00 512.00
M 260.00 1.00 
C 267.68 9.13 262.66 31.27 263.22 43.22 C 263.78 55.17 245.63 56.14 244.60 44.25 C 243.57 32.37 239.59 9.44 248.00 1.00
C 251.44 1.32 256.54 1.32 260.00 1.00
M 208.00 2.00 
C 218.48 0.61 221.22 15.05 226.75 20.25 C 232.28 25.46 234.04 41.29 222.77 42.21 C 211.50 43.13 210.68 30.17 204.91 25.08 C 199.15 19.99 196.01 3.60 208.00 2.00
M 298.00 2.00 
C 310.25 -0.28 313.81 16.97 306.61 22.75 C 299.41 28.54 300.12 39.91 289.75 42.80 C 279.38 45.69 274.90 28.43 281.19 23.75 C 287.48 19.07 288.58 3.75 298.00 2.00 Z"/>
</g>
<g fill="#000000" fill-opacity="0.95" stroke="None">
<path d="
M 260.00 1.00 
C 256.54 1.32 251.44 1.32 248.00 1.00
C 239.59 9.44 243.57 32.37 244.60 44.25 C 245.63 56.14 263.78 55.17 263.22 43.22 C 262.66 31.27 267.68 9.13 260.00 1.00 Z"/>
</g>
<g fill="#000000" fill-opacity="0.96" stroke="None">
<path d="
M 208.00 2.00 
C 196.01 3.60 199.15 19.99 204.91 25.08 C 210.68 30.17 211.50 43.13 222.77 42.21 C 234.04 41.29 232.28 25.46 226.75 20.25 C 221.22 15.05 218.48 0.61 208.00 2.00 Z"/>
</g>
<g fill="#000000" fill-opacity="0.96" stroke="None">
<path d="
M 298.00 2.00 
C 288.58 3.75 287.48 19.07 281.19 23.75 C 274.90 28.43 279.38 45.69 289.75 42.80 C 300.12 39.91 299.41 28.54 306.61 22.75 C 313.81 16.97 310.25 -0.28 298.00 2.00 Z"/>
</g>
<g fill="#000000" fill-opacity="1.00" stroke="None">
<path d="
M 159.00 512.00 
L 163.00 512.00
C 182.37 510.55 194.01 480.03 178.25 466.75 C 162.49 453.48 138.46 457.85 120.00 451.00
C 122.97 439.41 124.60 426.68 127.02 415.02 C 129.44 403.37 131.12 391.05 133.67 379.67 C 136.22 368.29 137.63 354.09 140.22 343.22 C 142.81 332.36 160.56 336.69 168.92 329.92 C 177.29 323.16 185.86 319.47 192.75 310.75 C 199.64 302.03 205.85 296.67 211.08 287.08 C 216.31 277.49 221.18 268.63 225.22 258.22 C 229.27 247.81 232.99 238.32 236.00 227.00 C 239.01 215.69 240.18 202.57 242.67 190.67 C 245.16 178.77 244.72 164.45 246.02 152.02 C 247.33 139.60 246.75 122.36 247.00 110.00 C 247.25 97.64 245.50 83.27 245.80 73.25 C 246.10 63.22 242.02 58.13 234.25 56.19 C 226.48 54.26 220.85 54.25 213.23 52.77 C 205.61 51.30 198.69 48.99 191.25 47.80 C 183.81 46.61 177.23 45.19 169.75 43.40 C 162.27 41.60 156.09 42.16 148.25 39.80 C 140.41 37.44 131.19 37.25 128.71 44.70 C 126.23 52.15 120.17 56.37 118.19 62.75 C 116.21 69.13 112.91 74.10 110.19 80.75 C 107.47 87.39 105.48 92.79 102.19 99.75 C 98.90 106.70 98.95 112.23 95.76 119.75 C 92.56 127.27 90.39 135.67 87.32 146.32 C 84.25 156.97 81.80 168.57 79.00 180.00 C 76.20 191.42 75.80 206.54 74.78 218.78 C 73.76 231.02 74.75 245.73 76.22 257.78 C 77.70 269.83 82.01 280.57 85.23 291.77 C 88.45 302.97 95.82 308.00 101.23 317.77 C 106.64 327.54 122.48 328.24 121.33 339.33 C 120.18 350.42 116.65 363.41 114.98 374.98 C 113.30 386.54 109.93 399.25 108.00 411.00 C 106.06 422.75 103.40 435.07 102.00 447.00
C 82.94 446.75 58.76 433.82 40.70 440.70 C 22.64 447.58 20.98 479.62 38.92 487.08 C 56.87 494.53 79.79 495.08 98.98 500.02 C 118.16 504.97 140.05 506.99 159.00 512.00
M 226.00 75.00 
C 225.18 85.07 227.67 94.45 227.78 104.22 C 227.89 113.99 228.89 126.35 228.00 136.00 C 227.11 145.65 226.85 155.55 226.00 165.00 C 225.15 174.45 224.13 184.21 222.07 193.07 C 220.01 201.94 221.27 211.23 217.22 219.22 C 213.18 227.21 198.15 221.82 189.00 223.00 C 179.85 224.18 167.94 222.47 158.00 223.00 C 148.06 223.53 136.29 222.72 126.00 223.00 C 115.71 223.28 104.38 222.79 94.00 223.00
C 97.33 164.74 117.39 110.43 143.00 59.00
C 170.69 64.20 198.24 69.96 226.00 75.00
M 210.00 243.00 
C 203.25 263.42 192.05 282.22 177.75 298.75 C 163.44 315.27 135.91 326.19 118.75 308.25 C 101.60 290.31 96.59 266.92 95.00 243.00
C 133.33 243.00 171.67 243.00 210.00 243.00
M 55.00 458.00 
C 63.04 458.85 71.43 461.78 80.00 463.00 C 88.58 464.22 97.09 467.07 106.00 468.00 C 114.91 468.92 122.35 472.70 131.67 473.33 C 140.99 473.96 147.58 478.27 157.67 478.33 C 167.76 478.39 167.61 492.93 157.78 491.22 C 147.95 489.51 141.57 488.14 132.33 486.67 C 123.09 485.21 115.96 482.28 106.78 481.22 C 97.60 480.17 89.98 477.31 80.78 476.22 C 71.57 475.13 64.52 471.38 54.78 471.22 C 45.03 471.07 42.43 456.68 55.00 458.00 Z"/>
</g>
<g fill="#000000" fill-opacity="1.00" stroke="None">
<path d="
M 350.00 512.00 
L 354.00 512.00
C 372.75 506.20 395.83 505.09 414.93 499.93 C 434.03 494.76 456.85 494.56 474.25 486.25 C 491.66 477.95 488.65 446.73 470.68 440.32 C 452.71 433.91 428.79 446.96 410.00 447.00
C 403.32 409.15 395.92 371.51 388.00 334.00
C 429.15 314.20 437.37 262.16 436.00 221.00 C 434.63 179.84 422.38 137.45 412.57 110.77 C 402.76 84.08 394.11 64.01 378.00 38.00
C 370.32 38.93 361.64 38.53 355.30 40.29 C 348.96 42.05 342.68 43.23 335.75 44.41 C 328.83 45.59 322.60 47.59 315.75 48.61 C 308.91 49.62 303.79 51.10 296.25 52.20 C 288.70 53.30 284.79 55.36 276.75 56.40 C 268.71 57.43 265.92 63.70 265.60 72.25 C 265.29 80.80 264.65 93.89 264.00 105.00 C 263.34 116.11 263.25 130.34 264.00 142.00 C 264.75 153.66 265.54 166.70 267.00 178.00 C 268.46 189.30 269.84 201.29 272.00 212.00 C 274.17 222.71 276.46 233.18 280.02 242.98 C 283.59 252.77 286.19 262.12 291.08 270.92 C 295.96 279.73 299.30 287.95 305.25 295.75 C 311.19 303.55 315.86 309.95 323.25 316.75 C 330.64 323.54 337.45 327.82 346.78 332.22 C 356.10 336.63 370.70 334.60 371.07 346.93 C 371.45 359.25 376.38 367.69 377.67 379.33 C 378.96 390.97 382.35 400.54 384.01 411.99 C 385.67 423.44 388.61 433.05 390.22 444.78 C 391.83 456.51 373.57 453.17 364.22 456.22 C 354.87 459.27 342.95 458.62 334.75 465.75 C 326.55 472.88 325.09 485.48 328.70 495.31 C 332.30 505.13 340.49 510.14 350.00 512.00
M 368.00 59.00 
C 389.10 101.56 405.88 146.10 414.00 193.00
C 372.00 193.00 330.00 193.00 288.00 193.00
C 282.54 154.51 281.96 114.29 285.00 75.00
C 312.71 69.91 340.28 64.18 368.00 59.00
M 416.00 213.00 
C 417.88 245.17 415.64 276.75 396.25 303.25 C 376.85 329.74 342.32 314.10 326.25 290.75 C 310.17 267.40 297.10 241.11 292.00 213.00
C 333.33 213.00 374.67 213.00 416.00 213.00
M 463.00 458.00 
C 471.97 461.97 462.20 473.23 454.98 471.98 C 447.75 470.72 438.78 475.80 431.33 476.33 C 423.87 476.85 415.57 479.87 407.99 480.99 C 400.41 482.12 392.05 483.40 384.78 485.78 C 377.51 488.15 367.72 486.35 360.99 489.99 C 354.26 493.63 342.44 489.45 346.78 481.78 C 351.12 474.10 361.94 478.63 368.67 475.67 C 375.40 472.71 384.84 473.14 392.02 471.02 C 399.21 468.91 408.32 467.78 415.67 466.67 C 423.02 465.56 431.84 461.99 439.01 462.01 C 446.18 462.03 456.27 455.02 463.00 458.00 Z"/>
</g>
<g fill="#C6F2FC" fill-opacity="1.00" stroke="None">
<path d="
M 226.00 75.00 
C 198.24 69.96 170.69 64.20 143.00 59.00
C 117.39 110.43 97.33 164.74 94.00 223.00
C 104.38 222.79 115.71 223.28 126.00 223.00 C 136.29 222.72 148.06 223.53 158.00 223.00 C 167.94 222.47 179.85 224.18 189.00 223.00 C 198.15 221.82 213.18 227.21 217.22 219.22 C 221.27 211.23 220.01 201.94 222.07 193.07 C 224.13 184.21 225.15 174.45 226.00 165.00 C 226.85 155.55 227.11 145.65 228.00 136.00 C 228.89 126.35 227.89 113.99 227.78 104.22 C 227.67 94.45 225.18 85.07 226.00 75.00
M 206.00 92.00 
C 219.62 93.45 213.89 112.80 215.00 124.00 C 216.11 135.20 213.05 151.20 213.00 164.00 C 212.95 176.80 191.70 175.90 193.00 163.00 C 194.30 150.10 194.84 134.37 195.00 123.00 C 195.16 111.63 190.75 90.37 206.00 92.00
M 200.00 194.00 
C 212.72 196.49 206.53 218.18 194.33 213.67 C 182.13 209.16 188.17 191.68 200.00 194.00 Z"/>
</g>
<g fill="#C6F3FC" fill-opacity="1.00" stroke="None">
<path d="
M 368.00 59.00 
C 340.28 64.18 312.71 69.91 285.00 75.00
C 281.96 114.29 282.54 154.51 288.00 193.00
C 330.00 193.00 372.00 193.00 414.00 193.00
C 405.88 146.10 389.10 101.56 368.00 59.00
M 359.00 75.00 
C 370.35 78.44 363.80 98.79 351.98 94.02 C 340.15 89.26 345.80 70.99 359.00 75.00
M 374.00 112.00 
C 385.53 115.50 380.68 134.47 387.78 142.22 C 394.87 149.98 391.90 174.14 378.33 168.67 C 364.76 163.20 372.48 146.46 365.07 137.93 C 357.67 129.40 358.32 107.24 374.00 112.00 Z"/>
</g>
<g fill="#000000" fill-opacity="1.00" stroke="None">
<path d="
M 359.00 75.00 
C 345.80 70.99 340.15 89.26 351.98 94.02 C 363.80 98.79 370.35 78.44 359.00 75.00 Z"/>
</g>
<g fill="#000000" fill-opacity="1.00" stroke="None">
<path d="
M 206.00 92.00 
C 190.75 90.37 195.16 111.63 195.00 123.00 C 194.84 134.37 194.30 150.10 193.00 163.00 C 191.70 175.90 212.95 176.80 213.00 164.00 C 213.05 151.20 216.11 135.20 215.00 124.00 C 213.89 112.80 219.62 93.45 206.00 92.00 Z"/>
</g>
<g fill="#000000" fill-opacity="1.00" stroke="None">
<path d="
M 374.00 112.00 
C 358.32 107.24 357.67 129.40 365.07 137.93 C 372.48 146.46 364.76 163.20 378.33 168.67 C 391.90 174.14 394.87 149.98 387.78 142.22 C 380.68 134.47 385.53 115.50 374.00 112.00 Z"/>
</g>
<g fill="#000000" fill-opacity="1.00" stroke="None">
<path d="
M 200.00 194.00 
C 188.17 191.68 182.13 209.16 194.33 213.67 C 206.53 218.18 212.72 196.49 200.00 194.00 Z"/>
</g>
<g fill="#F4C76D" fill-opacity="1.00" stroke="None">
<path d="
M 416.00 213.00 
C 374.67 213.00 333.33 213.00 292.00 213.00
C 297.10 241.11 310.17 267.40 326.25 290.75 C 342.32 314.10 376.85 329.74 396.25 303.25 C 415.64 276.75 417.88 245.17 416.00 213.00 Z"/>
</g>
<g fill="#F3C76D" fill-opacity="1.00" stroke="None">
<path d="
M 210.00 243.00 
C 171.67 243.00 133.33 243.00 95.00 243.00
C 96.59 266.92 101.60 290.31 118.75 308.25 C 135.91 326.19 163.44 315.27 177.75 298.75 C 192.05 282.22 203.25 263.42 210.00 243.00 Z"/>
</g>
<g fill="#C3EEF8" fill-opacity="1.00" stroke="None">
<path d="
M 55.00 458.00 
C 42.43 456.68 45.03 471.07 54.78 471.22 C 64.52 471.38 71.57 475.13 80.78 476.22 C 89.98 477.31 97.60 480.17 106.78 481.22 C 115.96 482.28 123.09 485.21 132.33 486.67 C 141.57 488.14 147.95 489.51 157.78 491.22 C 167.61 492.93 167.76 478.39 157.67 478.33 C 147.58 478.27 140.99 473.96 131.67 473.33 C 122.35 472.70 114.91 468.92 106.00 468.00 C 97.09 467.07 88.58 464.22 80.00 463.00 C 71.43 461.78 63.04 458.85 55.00 458.00 Z"/>
</g>
<g fill="#C3EEF8" fill-opacity="1.00" stroke="None">
<path d="
M 463.00 458.00 
C 456.27 455.02 446.18 462.03 439.01 462.01 C 431.84 461.99 423.02 465.56 415.67 466.67 C 408.32 467.78 399.21 468.91 392.02 471.02 C 384.84 473.14 375.40 472.71 368.67 475.67 C 361.94 478.63 351.12 474.10 346.78 481.78 C 342.44 489.45 354.26 493.63 360.99 489.99 C 367.72 486.35 377.51 488.15 384.78 485.78 C 392.05 483.40 400.41 482.12 407.99 480.99 C 415.57 479.87 423.87 476.85 431.33 476.33 C 438.78 475.80 447.75 470.72 454.98 471.98 C 462.20 473.23 471.97 461.97 463.00 458.00 Z"/>
</g>
</svg>