<svg xmlns="http://www.w3.org/2000/svg" xmlns:v="https://svgstorm.com"
viewBox = "0 0 512 512"
width="512"
height="512">
<g fill="None" fill-opacity="0.0" stroke="#000000" stroke-opacity="0.00" stroke-width="0.3"><path d="
M 0.00 9.00 
C 2.30 5.36 5.48 2.36 9.00 0.00
L 0.00 0.00
L 0.00 9.00 Z"/>
</g>
<g fill="None" fill-opacity="0.0" stroke="#FE3E5B" stroke-opacity="0.98" stroke-width="0.3"><path d="
M 0.00 9.00 
L 0.00 23.00
C 3.88 42.02 7.77 62.89 11.00 82.00
C 12.42 76.63 21.19 73.85 24.75 69.75 C 28.32 65.65 34.24 61.04 38.75 57.75 C 43.25 54.45 48.03 48.78 52.75 45.75 C 57.48 42.72 62.00 36.23 66.75 33.75 C 71.51 31.28 76.11 22.85 81.00 22.00
C 61.37 14.75 40.39 7.78 21.00 0.00
L 9.00 0.00
C 5.48 2.36 2.30 5.36 0.00 9.00 Z"/>
</g>
<g fill="None" fill-opacity="0.0" stroke="#000000" stroke-opacity="0.00" stroke-width="0.3"><path d="
M 81.00 22.00 
C 91.52 25.88 102.35 29.36 113.00 33.00
C 124.34 36.88 135.61 41.11 147.00 45.00
C 157.64 48.64 168.43 52.10 179.00 56.00
C 184.54 58.05 190.73 59.39 196.00 62.00
C 204.69 62.49 216.24 60.00 226.00 60.00
C 288.66 60.00 343.52 83.24 388.25 127.75 C 432.98 172.27 452.00 232.30 452.00 295.00
C 454.81 289.56 469.01 293.65 474.02 294.98 C 479.04 296.30 486.93 300.80 491.70 304.30 C 496.46 307.81 500.36 313.20 503.77 318.23 C 507.18 323.26 510.12 331.45 512.00 337.00
L 512.00 21.00
C 507.96 30.36 493.34 33.78 485.77 26.23 C 478.20 18.68 481.68 4.00 491.00 0.00
L 288.00 0.00
C 296.55 4.58 298.38 17.98 310.01 17.99 C 321.64 18.01 329.72 30.11 323.74 40.74 C 317.76 51.37 303.90 49.69 293.93 46.07 C 283.95 42.46 277.13 36.66 271.23 27.77 C 265.33 18.88 264.71 4.99 276.00 0.00
L 21.00 0.00
C 40.39 7.78 61.37 14.75 81.00 22.00
M 421.00 46.00 
C 439.55 51.03 427.78 84.34 409.33 75.67 C 390.88 67.00 401.51 40.72 421.00 46.00
M 484.00 130.00 
C 504.26 131.13 501.21 163.27 481.00 161.00 C 460.79 158.73 465.09 128.95 484.00 130.00 Z"/>
</g>
<g fill="None" fill-opacity="0.0" stroke="#008ADF" stroke-opacity="0.95" stroke-width="0.3"><path d="
M 288.00 0.00 
L 276.00 0.00
C 264.71 4.99 265.33 18.88 271.23 27.77 C 277.13 36.66 283.95 42.46 293.93 46.07 C 303.90 49.69 317.76 51.37 323.74 40.74 C 329.72 30.11 321.64 18.01 310.01 17.99 C 298.38 17.98 296.55 4.58 288.00 0.00 Z"/>
</g>
<g fill="None" fill-opacity="0.0" stroke="#A14BDB" stroke-opacity="0.93" stroke-width="0.3"><path d="
M 512.00 21.00 
L 512.00 9.00
C 509.70 5.36 506.52 2.36 503.00 0.00
L 491.00 0.00
C 481.68 4.00 478.20 18.68 485.77 26.23 C 493.34 33.78 507.96 30.36 512.00 21.00 Z"/>
</g>
<g fill="None" fill-opacity="0.0" stroke="#000000" stroke-opacity="0.00" stroke-width="0.3"><path d="
M 512.00 9.00 
L 512.00 0.00
L 503.00 0.00
C 506.52 2.36 509.70 5.36 512.00 9.00 Z"/>
</g>
<g fill="None" fill-opacity="0.0" stroke="#D20762" stroke-opacity="0.99" stroke-width="0.3"><path d="
M 11.00 82.00 
C 12.81 92.72 14.16 103.31 16.00 114.00
C 18.66 116.85 24.53 107.78 27.75 105.75 C 30.98 103.73 36.97 98.33 40.70 95.70 C 44.43 93.06 48.29 88.15 52.25 85.25 C 56.21 82.34 60.77 77.78 64.75 74.75 C 68.73 71.73 73.05 68.02 76.75 64.75 C 80.45 61.49 86.03 57.60 89.25 54.25 C 92.47 50.89 99.06 47.45 101.25 44.25 C 103.43 41.05 114.36 36.67 113.00 33.00
C 102.35 29.36 91.52 25.88 81.00 22.00
C 76.11 22.85 71.51 31.28 66.75 33.75 C 62.00 36.23 57.48 42.72 52.75 45.75 C 48.03 48.78 43.25 54.45 38.75 57.75 C 34.24 61.04 28.32 65.65 24.75 69.75 C 21.19 73.85 12.42 76.63 11.00 82.00 Z"/>
</g>
<g fill="None" fill-opacity="0.0" stroke="#000000" stroke-opacity="0.00" stroke-width="0.3"><path d="
M 0.00 265.00 
C 1.36 257.68 2.70 248.58 3.98 240.98 C 5.26 233.38 8.07 226.02 9.78 218.78 C 11.48 211.54 15.38 204.91 16.98 197.98 C 18.57 191.04 25.78 185.22 27.00 179.00
C 24.48 169.27 23.68 158.96 22.00 149.00
C 20.03 137.37 18.01 125.67 16.00 114.00
C 14.16 103.31 12.81 92.72 11.00 82.00
C 7.77 62.89 3.88 42.02 0.00 23.00
L 0.00 265.00 Z"/>
</g>
<g fill="None" fill-opacity="0.0" stroke="#FE3E5C" stroke-opacity="0.99" stroke-width="0.3"><path d="
M 16.00 114.00 
C 18.01 125.67 20.03 137.37 22.00 149.00
C 23.74 150.78 32.41 142.22 35.70 139.70 C 38.98 137.17 45.63 130.90 49.75 127.75 C 53.86 124.59 59.06 118.81 63.75 115.75 C 68.43 112.68 72.48 107.62 77.25 104.25 C 82.01 100.87 86.41 95.72 91.25 92.25 C 96.09 88.78 100.39 83.74 105.25 80.25 C 110.11 76.75 114.23 72.86 118.75 68.75 C 123.28 64.65 128.60 61.26 133.08 57.08 C 137.56 52.90 143.09 49.55 147.00 45.00
C 135.61 41.11 124.34 36.88 113.00 33.00
C 114.36 36.67 103.43 41.05 101.25 44.25 C 99.06 47.45 92.47 50.89 89.25 54.25 C 86.03 57.60 80.45 61.49 76.75 64.75 C 73.05 68.02 68.73 71.73 64.75 74.75 C 60.77 77.78 56.21 82.34 52.25 85.25 C 48.29 88.15 44.43 93.06 40.70 95.70 C 36.97 98.33 30.98 103.73 27.75 105.75 C 24.53 107.78 18.66 116.85 16.00 114.00 Z"/>
</g>
<g fill="None" fill-opacity="0.0" stroke="#D20762" stroke-opacity="0.99" stroke-width="0.3"><path d="
M 22.00 149.00 
C 23.68 158.96 24.48 169.27 27.00 179.00
C 27.35 180.36 27.69 181.55 28.00 183.00
C 54.26 164.42 79.61 141.74 104.70 120.70 C 129.78 99.65 155.85 78.20 179.00 56.00
C 168.43 52.10 157.64 48.64 147.00 45.00
C 143.09 49.55 137.56 52.90 133.08 57.08 C 128.60 61.26 123.28 64.65 118.75 68.75 C 114.23 72.86 110.11 76.75 105.25 80.25 C 100.39 83.74 96.09 88.78 91.25 92.25 C 86.41 95.72 82.01 100.87 77.25 104.25 C 72.48 107.62 68.43 112.68 63.75 115.75 C 59.06 118.81 53.86 124.59 49.75 127.75 C 45.63 130.90 38.98 137.17 35.70 139.70 C 32.41 142.22 23.74 150.78 22.00 149.00 Z"/>
</g>
<g fill="None" fill-opacity="0.0" stroke="#00AA5E" stroke-opacity="0.93" stroke-width="0.3"><path d="
M 421.00 46.00 
C 401.51 40.72 390.88 67.00 409.33 75.67 C 427.78 84.34 439.55 51.03 421.00 46.00 Z"/>
</g>
<g fill="None" fill-opacity="0.0" stroke="#FE3F5B" stroke-opacity="1.00" stroke-width="0.3"><path d="
M 28.00 183.00 
C 30.16 193.24 33.26 219.24 49.00 215.00 C 64.74 210.76 67.70 199.05 79.75 191.75 C 91.79 184.44 97.34 175.00 108.25 167.25 C 119.15 159.50 127.22 150.80 137.75 142.75 C 148.28 134.70 155.37 126.29 166.25 118.25 C 177.13 110.20 183.93 101.98 195.75 93.75 C 207.57 85.52 211.63 69.73 196.00 62.00
C 190.73 59.39 184.54 58.05 179.00 56.00
C 155.85 78.20 129.78 99.65 104.70 120.70 C 79.61 141.74 54.26 164.42 28.00 183.00 Z"/>
</g>
<g fill="None" fill-opacity="0.0" stroke="#FEDD45" stroke-opacity="1.00" stroke-width="0.3"><path d="
M 196.00 62.00 
C 211.63 69.73 207.57 85.52 195.75 93.75 C 183.93 101.98 177.13 110.20 166.25 118.25 C 155.37 126.29 148.28 134.70 137.75 142.75 C 127.22 150.80 119.15 159.50 108.25 167.25 C 97.34 175.00 91.79 184.44 79.75 191.75 C 67.70 199.05 64.74 210.76 49.00 215.00 C 33.26 219.24 30.16 193.24 28.00 183.00
C 27.69 181.55 27.35 180.36 27.00 179.00
C 25.78 185.22 18.57 191.04 16.98 197.98 C 15.38 204.91 11.48 211.54 9.78 218.78 C 8.07 226.02 5.26 233.38 3.98 240.98 C 2.70 248.58 1.36 257.68 0.00 265.00
L 0.00 273.00
C 1.54 275.28 1.72 280.79 0.00 283.00
L 0.00 289.00
C 1.52 290.96 1.72 296.11 0.00 298.00
L 0.00 307.00
C 7.69 411.71 100.39 504.29 205.00 512.00
L 226.00 512.00
C 224.11 486.28 228.08 458.86 227.00 434.00
C 224.64 429.67 224.50 424.29 227.00 420.00
C 228.82 391.24 224.52 360.73 226.00 331.00 C 227.48 301.27 225.31 270.92 226.00 241.00 C 226.69 211.08 225.64 181.06 226.00 151.00 C 226.36 120.94 225.73 90.13 226.00 60.00
C 216.24 60.00 204.69 62.49 196.00 62.00
M 150.00 202.00 
C 162.26 203.48 173.67 208.83 183.75 217.25 C 193.84 225.67 198.84 234.58 203.78 247.22 C 208.71 259.87 186.57 273.24 178.75 261.25 C 170.93 249.26 168.64 240.53 155.31 234.69 C 141.97 228.86 128.36 232.71 117.77 240.77 C 107.18 248.83 108.93 266.43 93.00 266.00 C 77.07 265.57 76.74 246.13 83.92 235.92 C 91.11 225.72 97.14 217.03 108.70 210.70 C 120.25 204.36 135.86 200.29 150.00 202.00
M 124.00 332.00 
C 135.32 334.63 138.14 350.76 130.70 358.70 C 123.25 366.63 115.80 373.50 104.99 374.99 C 94.18 376.48 78.95 379.12 75.03 364.97 C 71.10 350.83 83.74 345.83 96.00 346.00 C 108.26 346.17 109.51 328.63 124.00 332.00 Z"/>
</g>
<g fill="None" fill-opacity="0.0" stroke="#FECC01" stroke-opacity="1.00" stroke-width="0.3"><path d="
M 227.00 420.00 
C 234.53 407.05 250.99 399.31 250.33 382.33 C 249.66 365.35 251.42 349.49 235.25 337.75 C 219.08 326.01 239.41 301.48 253.08 312.92 C 266.74 324.37 272.09 334.48 277.00 350.00
C 290.00 350.00 303.00 350.00 316.00 350.00
C 316.50 350.00 317.00 350.00 317.00 350.00
C 330.91 350.00 346.23 350.55 360.00 350.00 C 373.77 349.45 389.75 351.47 403.00 350.00 C 416.25 348.53 433.70 354.66 444.00 347.00
C 448.56 340.21 450.26 323.69 451.00 316.00
C 451.00 308.82 452.00 302.28 452.00 295.00
C 452.00 232.30 432.98 172.27 388.25 127.75 C 343.52 83.24 288.66 60.00 226.00 60.00
C 225.73 90.13 226.36 120.94 226.00 151.00 C 225.64 181.06 226.69 211.08 226.00 241.00 C 225.31 270.92 227.48 301.27 226.00 331.00 C 224.52 360.73 228.82 391.24 227.00 420.00
M 270.00 121.00 
C 288.11 123.80 285.39 153.24 266.00 151.00 C 246.61 148.76 250.83 118.04 270.00 121.00
M 318.00 202.00 
C 329.82 203.43 347.15 209.63 355.25 219.75 C 363.35 229.87 378.77 241.64 372.02 257.02 C 365.28 272.41 345.42 263.97 341.23 249.77 C 337.04 235.57 317.53 229.26 303.33 232.33 C 289.13 235.40 282.11 244.77 275.23 259.23 C 268.35 273.68 241.20 260.03 248.98 244.98 C 256.75 229.92 260.35 222.62 273.70 213.70 C 287.04 204.78 301.45 200.00 318.00 202.00 Z"/>
</g>
<g fill="None" fill-opacity="0.0" stroke="#A34DD8" stroke-opacity="1.00" stroke-width="0.3"><path d="
M 270.00 121.00 
C 250.83 118.04 246.61 148.76 266.00 151.00 C 285.39 153.24 288.11 123.80 270.00 121.00 Z"/>
</g>
<g fill="None" fill-opacity="0.0" stroke="#D20662" stroke-opacity="0.93" stroke-width="0.3"><path d="
M 484.00 130.00 
C 465.09 128.95 460.79 158.73 481.00 161.00 C 501.21 163.27 504.26 131.13 484.00 130.00 Z"/>
</g>
<g fill="None" fill-opacity="0.0" stroke="#01357A" stroke-opacity="1.00" stroke-width="0.3"><path d="
M 150.00 202.00 
C 135.86 200.29 120.25 204.36 108.70 210.70 C 97.14 217.03 91.11 225.72 83.92 235.92 C 76.74 246.13 77.07 265.57 93.00 266.00 C 108.93 266.43 107.18 248.83 117.77 240.77 C 128.36 232.71 141.97 228.86 155.31 234.69 C 168.64 240.53 170.93 249.26 178.75 261.25 C 186.57 273.24 208.71 259.87 203.78 247.22 C 198.84 234.58 193.84 225.67 183.75 217.25 C 173.67 208.83 162.26 203.48 150.00 202.00 Z"/>
</g>
<g fill="None" fill-opacity="0.0" stroke="#001836" stroke-opacity="1.00" stroke-width="0.3"><path d="
M 318.00 202.00 
C 301.45 200.00 287.04 204.78 273.70 213.70 C 260.35 222.62 256.75 229.92 248.98 244.98 C 241.20 260.03 268.35 273.68 275.23 259.23 C 282.11 244.77 289.13 235.40 303.33 232.33 C 317.53 229.26 337.04 235.57 341.23 249.77 C 345.42 263.97 365.28 272.41 372.02 257.02 C 378.77 241.64 363.35 229.87 355.25 219.75 C 347.15 209.63 329.82 203.43 318.00 202.00 Z"/>
</g>
<g fill="None" fill-opacity="0.0" stroke="#FEDE45" stroke-opacity="0.80" stroke-width="0.3"><path d="
M 0.00 283.00 
C 1.72 280.79 1.54 275.28 0.00 273.00
L 0.00 283.00 Z"/>
</g>
<g fill="None" fill-opacity="0.0" stroke="#FEDE45" stroke-opacity="0.81" stroke-width="0.3"><path d="
M 0.00 298.00 
C 1.72 296.11 1.52 290.96 0.00 289.00
L 0.00 298.00 Z"/>
</g>
<g fill="None" fill-opacity="0.0" stroke="#008ADE" stroke-opacity="0.99" stroke-width="0.3"><path d="
M 452.00 295.00 
C 452.00 302.28 451.00 308.82 451.00 316.00
C 451.00 327.76 453.79 339.72 444.00 347.00
C 433.70 354.66 416.25 348.53 403.00 350.00 C 389.75 351.47 373.77 349.45 360.00 350.00 C 346.23 350.55 330.91 350.00 317.00 350.00
C 318.70 368.92 318.71 391.08 317.00 410.00
C 349.67 409.99 382.33 410.00 415.00 410.00
C 435.94 410.00 463.41 412.87 481.22 403.22 C 499.04 393.58 506.80 378.56 512.00 361.00
L 512.00 337.00
C 510.12 331.45 507.18 323.26 503.77 318.23 C 500.36 313.20 496.46 307.81 491.70 304.30 C 486.93 300.80 479.04 296.30 474.02 294.98 C 469.01 293.65 454.81 289.56 452.00 295.00 Z"/>
</g>
<g fill="None" fill-opacity="0.0" stroke="#000000" stroke-opacity="0.00" stroke-width="0.3"><path d="
M 0.00 512.00 
L 205.00 512.00
C 100.39 504.29 7.69 411.71 0.00 307.00
L 0.00 512.00
M 34.00 431.00 
C 52.55 436.03 40.78 469.34 22.33 460.67 C 3.88 452.00 14.51 425.72 34.00 431.00 Z"/>
</g>
<g fill="None" fill-opacity="0.0" stroke="#001837" stroke-opacity="1.00" stroke-width="0.3"><path d="
M 227.00 420.00 
C 224.50 424.29 224.64 429.67 227.00 434.00
C 233.36 445.66 246.91 442.39 254.25 434.25 C 261.59 426.11 268.36 419.38 273.00 410.00
C 282.00 391.81 283.12 369.36 277.00 350.00
C 272.09 334.48 266.74 324.37 253.08 312.92 C 239.41 301.48 219.08 326.01 235.25 337.75 C 251.42 349.49 249.66 365.35 250.33 382.33 C 250.99 399.31 234.53 407.05 227.00 420.00 Z"/>
</g>
<g fill="None" fill-opacity="0.0" stroke="#000000" stroke-opacity="0.00" stroke-width="0.3"><path d="
M 444.00 347.00 
C 453.79 339.72 451.00 327.76 451.00 316.00
C 450.26 323.69 448.56 340.21 444.00 347.00 Z"/>
</g>
<g fill="None" fill-opacity="0.0" stroke="#14DD7A" stroke-opacity="1.00" stroke-width="0.3"><path d="
M 124.00 332.00 
C 109.51 328.63 108.26 346.17 96.00 346.00 C 83.74 345.83 71.10 350.83 75.03 364.97 C 78.95 379.12 94.18 376.48 104.99 374.99 C 115.80 373.50 123.25 366.63 130.70 358.70 C 138.14 350.76 135.32 334.63 124.00 332.00 Z"/>
</g>
<g fill="None" fill-opacity="0.0" stroke="#F5EEE9" stroke-opacity="1.00" stroke-width="0.3"><path d="
M 273.00 410.00 
C 278.85 407.48 287.46 410.88 294.00 410.00 C 300.54 409.12 309.27 410.00 316.00 410.00
C 314.28 391.09 314.29 368.91 316.00 350.00
C 303.00 350.00 290.00 350.00 277.00 350.00
C 283.12 369.36 282.00 391.81 273.00 410.00 Z"/>
</g>
<g fill="None" fill-opacity="0.0" stroke="#A2CCE6" stroke-opacity="1.00" stroke-width="0.3"><path d="
M 316.00 410.00 
C 316.50 410.00 317.00 410.00 317.00 410.00
C 318.71 391.08 318.70 368.92 317.00 350.00
C 317.00 350.00 316.50 350.00 316.00 350.00
C 314.29 368.91 314.28 391.09 316.00 410.00 Z"/>
</g>
<g fill="None" fill-opacity="0.0" stroke="#000000" stroke-opacity="0.00" stroke-width="0.3"><path d="
M 415.00 410.00 
C 378.55 464.31 314.16 511.00 247.00 511.00
C 247.04 511.00 247.00 512.00 247.00 512.00
L 512.00 512.00
L 512.00 361.00
C 506.80 378.56 499.04 393.58 481.22 403.22 C 463.41 412.87 435.94 410.00 415.00 410.00
M 461.00 458.00 
C 477.46 461.09 474.64 481.53 464.75 491.75 C 454.85 501.97 441.21 508.32 426.00 507.00 C 410.79 505.68 409.65 476.36 426.03 477.03 C 442.40 477.69 444.47 454.89 461.00 458.00 Z"/>
</g>
<g fill="None" fill-opacity="0.0" stroke="#FECC00" stroke-opacity="0.99" stroke-width="0.3"><path d="
M 227.00 434.00 
C 228.08 458.86 224.11 486.28 226.00 512.00
L 238.00 512.00
C 240.10 510.28 244.15 511.00 247.00 511.00
C 314.16 511.00 378.55 464.31 415.00 410.00
C 382.33 410.00 349.67 409.99 317.00 410.00
C 317.00 410.00 316.50 410.00 316.00 410.00
C 309.27 410.00 300.54 409.12 294.00 410.00 C 287.46 410.88 278.85 407.48 273.00 410.00
C 268.36 419.38 261.59 426.11 254.25 434.25 C 246.91 442.39 233.36 445.66 227.00 434.00 Z"/>
</g>
<g fill="None" fill-opacity="0.0" stroke="#B660EA" stroke-opacity="0.93" stroke-width="0.3"><path d="
M 34.00 431.00 
C 14.51 425.72 3.88 452.00 22.33 460.67 C 40.78 469.34 52.55 436.03 34.00 431.00 Z"/>
</g>
<g fill="None" fill-opacity="0.0" stroke="#A24ADB" stroke-opacity="0.95" stroke-width="0.3"><path d="
M 461.00 458.00 
C 444.47 454.89 442.40 477.69 426.03 477.03 C 409.65 476.36 410.79 505.68 426.00 507.00 C 441.21 508.32 454.85 501.97 464.75 491.75 C 474.64 481.53 477.46 461.09 461.00 458.00 Z"/>
</g>
<g fill="None" fill-opacity="0.0" stroke="#FFD41C" stroke-opacity="0.51" stroke-width="0.3"><path d="
M 238.00 512.00 
L 247.00 512.00
C 247.00 512.00 247.04 511.00 247.00 511.00
C 244.15 511.00 240.10 510.28 238.00 512.00 Z"/>
</g>
<g fill="#000000" fill-opacity="0.00" stroke="None">
<path d="
M 0.00 9.00 
C 2.30 5.36 5.48 2.36 9.00 0.00
L 0.00 0.00
L 0.00 9.00 Z"/>
</g>
<g fill="#FE3E5B" fill-opacity="0.98" stroke="None">
<path d="
M 0.00 9.00 
L 0.00 23.00
C 3.88 42.02 7.77 62.89 11.00 82.00
C 12.42 76.63 21.19 73.85 24.75 69.75 C 28.32 65.65 34.24 61.04 38.75 57.75 C 43.25 54.45 48.03 48.78 52.75 45.75 C 57.48 42.72 62.00 36.23 66.75 33.75 C 71.51 31.28 76.11 22.85 81.00 22.00
C 61.37 14.75 40.39 7.78 21.00 0.00
L 9.00 0.00
C 5.48 2.36 2.30 5.36 0.00 9.00 Z"/>
</g>
<g fill="#000000" fill-opacity="0.00" stroke="None">
<path d="
M 81.00 22.00 
C 91.52 25.88 102.35 29.36 113.00 33.00
C 124.34 36.88 135.61 41.11 147.00 45.00
C 157.64 48.64 168.43 52.10 179.00 56.00
C 184.54 58.05 190.73 59.39 196.00 62.00
C 204.69 62.49 216.24 60.00 226.00 60.00
C 288.66 60.00 343.52 83.24 388.25 127.75 C 432.98 172.27 452.00 232.30 452.00 295.00
C 454.81 289.56 469.01 293.65 474.02 294.98 C 479.04 296.30 486.93 300.80 491.70 304.30 C 496.46 307.81 500.36 313.20 503.77 318.23 C 507.18 323.26 510.12 331.45 512.00 337.00
L 512.00 21.00
C 507.96 30.36 493.34 33.78 485.77 26.23 C 478.20 18.68 481.68 4.00 491.00 0.00
L 288.00 0.00
C 296.55 4.58 298.38 17.98 310.01 17.99 C 321.64 18.01 329.72 30.11 323.74 40.74 C 317.76 51.37 303.90 49.69 293.93 46.07 C 283.95 42.46 277.13 36.66 271.23 27.77 C 265.33 18.88 264.71 4.99 276.00 0.00
L 21.00 0.00
C 40.39 7.78 61.37 14.75 81.00 22.00
M 421.00 46.00 
C 439.55 51.03 427.78 84.34 409.33 75.67 C 390.88 67.00 401.51 40.72 421.00 46.00
M 484.00 130.00 
C 504.26 131.13 501.21 163.27 481.00 161.00 C 460.79 158.73 465.09 128.95 484.00 130.00 Z"/>
</g>
<g fill="#008ADF" fill-opacity="0.95" stroke="None">
<path d="
M 288.00 0.00 
L 276.00 0.00
C 264.71 4.99 265.33 18.88 271.23 27.77 C 277.13 36.66 283.95 42.46 293.93 46.07 C 303.90 49.69 317.76 51.37 323.74 40.74 C 329.72 30.11 321.64 18.01 310.01 17.99 C 298.38 17.98 296.55 4.58 288.00 0.00 Z"/>
</g>
<g fill="#A14BDB" fill-opacity="0.93" stroke="None">
<path d="
M 512.00 21.00 
L 512.00 9.00
C 509.70 5.36 506.52 2.36 503.00 0.00
L 491.00 0.00
C 481.68 4.00 478.20 18.68 485.77 26.23 C 493.34 33.78 507.96 30.36 512.00 21.00 Z"/>
</g>
<g fill="#000000" fill-opacity="0.00" stroke="None">
<path d="
M 512.00 9.00 
L 512.00 0.00
L 503.00 0.00
C 506.52 2.36 509.70 5.36 512.00 9.00 Z"/>
</g>
<g fill="#D20762" fill-opacity="0.99" stroke="None">
<path d="
M 11.00 82.00 
C 12.81 92.72 14.16 103.31 16.00 114.00
C 18.66 116.85 24.53 107.78 27.75 105.75 C 30.98 103.73 36.97 98.33 40.70 95.70 C 44.43 93.06 48.29 88.15 52.25 85.25 C 56.21 82.34 60.77 77.78 64.75 74.75 C 68.73 71.73 73.05 68.02 76.75 64.75 C 80.45 61.49 86.03 57.60 89.25 54.25 C 92.47 50.89 99.06 47.45 101.25 44.25 C 103.43 41.05 114.36 36.67 113.00 33.00
C 102.35 29.36 91.52 25.88 81.00 22.00
C 76.11 22.85 71.51 31.28 66.75 33.75 C 62.00 36.23 57.48 42.72 52.75 45.75 C 48.03 48.78 43.25 54.45 38.75 57.75 C 34.24 61.04 28.32 65.65 24.75 69.75 C 21.19 73.85 12.42 76.63 11.00 82.00 Z"/>
</g>
<g fill="#000000" fill-opacity="0.00" stroke="None">
<path d="
M 0.00 265.00 
C 1.36 257.68 2.70 248.58 3.98 240.98 C 5.26 233.38 8.07 226.02 9.78 218.78 C 11.48 211.54 15.38 204.91 16.98 197.98 C 18.57 191.04 25.78 185.22 27.00 179.00
C 24.48 169.27 23.68 158.96 22.00 149.00
C 20.03 137.37 18.01 125.67 16.00 114.00
C 14.16 103.31 12.81 92.72 11.00 82.00
C 7.77 62.89 3.88 42.02 0.00 23.00
L 0.00 265.00 Z"/>
</g>
<g fill="#FE3E5C" fill-opacity="0.99" stroke="None">
<path d="
M 16.00 114.00 
C 18.01 125.67 20.03 137.37 22.00 149.00
C 23.74 150.78 32.41 142.22 35.70 139.70 C 38.98 137.17 45.63 130.90 49.75 127.75 C 53.86 124.59 59.06 118.81 63.75 115.75 C 68.43 112.68 72.48 107.62 77.25 104.25 C 82.01 100.87 86.41 95.72 91.25 92.25 C 96.09 88.78 100.39 83.74 105.25 80.25 C 110.11 76.75 114.23 72.86 118.75 68.75 C 123.28 64.65 128.60 61.26 133.08 57.08 C 137.56 52.90 143.09 49.55 147.00 45.00
C 135.61 41.11 124.34 36.88 113.00 33.00
C 114.36 36.67 103.43 41.05 101.25 44.25 C 99.06 47.45 92.47 50.89 89.25 54.25 C 86.03 57.60 80.45 61.49 76.75 64.75 C 73.05 68.02 68.73 71.73 64.75 74.75 C 60.77 77.78 56.21 82.34 52.25 85.25 C 48.29 88.15 44.43 93.06 40.70 95.70 C 36.97 98.33 30.98 103.73 27.75 105.75 C 24.53 107.78 18.66 116.85 16.00 114.00 Z"/>
</g>
<g fill="#D20762" fill-opacity="0.99" stroke="None">
<path d="
M 22.00 149.00 
C 23.68 158.96 24.48 169.27 27.00 179.00
C 27.35 180.36 27.69 181.55 28.00 183.00
C 54.26 164.42 79.61 141.74 104.70 120.70 C 129.78 99.65 155.85 78.20 179.00 56.00
C 168.43 52.10 157.64 48.64 147.00 45.00
C 143.09 49.55 137.56 52.90 133.08 57.08 C 128.60 61.26 123.28 64.65 118.75 68.75 C 114.23 72.86 110.11 76.75 105.25 80.25 C 100.39 83.74 96.09 88.78 91.25 92.25 C 86.41 95.72 82.01 100.87 77.25 104.25 C 72.48 107.62 68.43 112.68 63.75 115.75 C 59.06 118.81 53.86 124.59 49.75 127.75 C 45.63 130.90 38.98 137.17 35.70 139.70 C 32.41 142.22 23.74 150.78 22.00 149.00 Z"/>
</g>
<g fill="#00AA5E" fill-opacity="0.93" stroke="None">
<path d="
M 421.00 46.00 
C 401.51 40.72 390.88 67.00 409.33 75.67 C 427.78 84.34 439.55 51.03 421.00 46.00 Z"/>
</g>
<g fill="#FE3F5B" fill-opacity="1.00" stroke="None">
<path d="
M 28.00 183.00 
C 30.16 193.24 33.26 219.24 49.00 215.00 C 64.74 210.76 67.70 199.05 79.75 191.75 C 91.79 184.44 97.34 175.00 108.25 167.25 C 119.15 159.50 127.22 150.80 137.75 142.75 C 148.28 134.70 155.37 126.29 166.25 118.25 C 177.13 110.20 183.93 101.98 195.75 93.75 C 207.57 85.52 211.63 69.73 196.00 62.00
C 190.73 59.39 184.54 58.05 179.00 56.00
C 155.85 78.20 129.78 99.65 104.70 120.70 C 79.61 141.74 54.26 164.42 28.00 183.00 Z"/>
</g>
<g fill="#FEDD45" fill-opacity="1.00" stroke="None">
<path d="
M 196.00 62.00 
C 211.63 69.73 207.57 85.52 195.75 93.75 C 183.93 101.98 177.13 110.20 166.25 118.25 C 155.37 126.29 148.28 134.70 137.75 142.75 C 127.22 150.80 119.15 159.50 108.25 167.25 C 97.34 175.00 91.79 184.44 79.75 191.75 C 67.70 199.05 64.74 210.76 49.00 215.00 C 33.26 219.24 30.16 193.24 28.00 183.00
C 27.69 181.55 27.35 180.36 27.00 179.00
C 25.78 185.22 18.57 191.04 16.98 197.98 C 15.38 204.91 11.48 211.54 9.78 218.78 C 8.07 226.02 5.26 233.38 3.98 240.98 C 2.70 248.58 1.36 257.68 0.00 265.00
L 0.00 273.00
C 1.54 275.28 1.72 280.79 0.00 283.00
L 0.00 289.00
C 1.52 290.96 1.72 296.11 0.00 298.00
L 0.00 307.00
C 7.69 411.71 100.39 504.29 205.00 512.00
L 226.00 512.00
C 224.11 486.28 228.08 458.86 227.00 434.00
C 224.64 429.67 224.50 424.29 227.00 420.00
C 228.82 391.24 224.52 360.73 226.00 331.00 C 227.48 301.27 225.31 270.92 226.00 241.00 C 226.69 211.08 225.64 181.06 226.00 151.00 C 226.36 120.94 225.73 90.13 226.00 60.00
C 216.24 60.00 204.69 62.49 196.00 62.00
M 150.00 202.00 
C 162.26 203.48 173.67 208.83 183.75 217.25 C 193.84 225.67 198.84 234.58 203.78 247.22 C 208.71 259.87 186.57 273.24 178.75 261.25 C 170.93 249.26 168.64 240.53 155.31 234.69 C 141.97 228.86 128.36 232.71 117.77 240.77 C 107.18 248.83 108.93 266.43 93.00 266.00 C 77.07 265.57 76.74 246.13 83.92 235.92 C 91.11 225.72 97.14 217.03 108.70 210.70 C 120.25 204.36 135.86 200.29 150.00 202.00
M 124.00 332.00 
C 135.32 334.63 138.14 350.76 130.70 358.70 C 123.25 366.63 115.80 373.50 104.99 374.99 C 94.18 376.48 78.95 379.12 75.03 364.97 C 71.10 350.83 83.74 345.83 96.00 346.00 C 108.26 346.17 109.51 328.63 124.00 332.00 Z"/>
</g>
<g fill="#FECC01" fill-opacity="1.00" stroke="None">
<path d="
M 227.00 420.00 
C 234.53 407.05 250.99 399.31 250.33 382.33 C 249.66 365.35 251.42 349.49 235.25 337.75 C 219.08 326.01 239.41 301.48 253.08 312.92 C 266.74 324.37 272.09 334.48 277.00 350.00
C 290.00 350.00 303.00 350.00 316.00 350.00
C 316.50 350.00 317.00 350.00 317.00 350.00
C 330.91 350.00 346.23 350.55 360.00 350.00 C 373.77 349.45 389.75 351.47 403.00 350.00 C 416.25 348.53 433.70 354.66 444.00 347.00
C 448.56 340.21 450.26 323.69 451.00 316.00
C 451.00 308.82 452.00 302.28 452.00 295.00
C 452.00 232.30 432.98 172.27 388.25 127.75 C 343.52 83.24 288.66 60.00 226.00 60.00
C 225.73 90.13 226.36 120.94 226.00 151.00 C 225.64 181.06 226.69 211.08 226.00 241.00 C 225.31 270.92 227.48 301.27 226.00 331.00 C 224.52 360.73 228.82 391.24 227.00 420.00
M 270.00 121.00 
C 288.11 123.80 285.39 153.24 266.00 151.00 C 246.61 148.76 250.83 118.04 270.00 121.00
M 318.00 202.00 
C 329.82 203.43 347.15 209.63 355.25 219.75 C 363.35 229.87 378.77 241.64 372.02 257.02 C 365.28 272.41 345.42 263.97 341.23 249.77 C 337.04 235.57 317.53 229.26 303.33 232.33 C 289.13 235.40 282.11 244.77 275.23 259.23 C 268.35 273.68 241.20 260.03 248.98 244.98 C 256.75 229.92 260.35 222.62 273.70 213.70 C 287.04 204.78 301.45 200.00 318.00 202.00 Z"/>
</g>
<g fill="#A34DD8" fill-opacity="1.00" stroke="None">
<path d="
M 270.00 121.00 
C 250.83 118.04 246.61 148.76 266.00 151.00 C 285.39 153.24 288.11 123.80 270.00 121.00 Z"/>
</g>
<g fill="#D20662" fill-opacity="0.93" stroke="None">
<path d="
M 484.00 130.00 
C 465.09 128.95 460.79 158.73 481.00 161.00 C 501.21 163.27 504.26 131.13 484.00 130.00 Z"/>
</g>
<g fill="#01357A" fill-opacity="1.00" stroke="None">
<path d="
M 150.00 202.00 
C 135.86 200.29 120.25 204.36 108.70 210.70 C 97.14 217.03 91.11 225.72 83.92 235.92 C 76.74 246.13 77.07 265.57 93.00 266.00 C 108.93 266.43 107.18 248.83 117.77 240.77 C 128.36 232.71 141.97 228.86 155.31 234.69 C 168.64 240.53 170.93 249.26 178.75 261.25 C 186.57 273.24 208.71 259.87 203.78 247.22 C 198.84 234.58 193.84 225.67 183.75 217.25 C 173.67 208.83 162.26 203.48 150.00 202.00 Z"/>
</g>
<g fill="#001836" fill-opacity="1.00" stroke="None">
<path d="
M 318.00 202.00 
C 301.45 200.00 287.04 204.78 273.70 213.70 C 260.35 222.62 256.75 229.92 248.98 244.98 C 241.20 260.03 268.35 273.68 275.23 259.23 C 282.11 244.77 289.13 235.40 303.33 232.33 C 317.53 229.26 337.04 235.57 341.23 249.77 C 345.42 263.97 365.28 272.41 372.02 257.02 C 378.77 241.64 363.35 229.87 355.25 219.75 C 347.15 209.63 329.82 203.43 318.00 202.00 Z"/>
</g>
<g fill="#FEDE45" fill-opacity="0.80" stroke="None">
<path d="
M 0.00 283.00 
C 1.72 280.79 1.54 275.28 0.00 273.00
L 0.00 283.00 Z"/>
</g>
<g fill="#FEDE45" fill-opacity="0.81" stroke="None">
<path d="
M 0.00 298.00 
C 1.72 296.11 1.52 290.96 0.00 289.00
L 0.00 298.00 Z"/>
</g>
<g fill="#008ADE" fill-opacity="0.99" stroke="None">
<path d="
M 452.00 295.00 
C 452.00 302.28 451.00 308.82 451.00 316.00
C 451.00 327.76 453.79 339.72 444.00 347.00
C 433.70 354.66 416.25 348.53 403.00 350.00 C 389.75 351.47 373.77 349.45 360.00 350.00 C 346.23 350.55 330.91 350.00 317.00 350.00
C 318.70 368.92 318.71 391.08 317.00 410.00
C 349.67 409.99 382.33 410.00 415.00 410.00
C 435.94 410.00 463.41 412.87 481.22 403.22 C 499.04 393.58 506.80 378.56 512.00 361.00
L 512.00 337.00
C 510.12 331.45 507.18 323.26 503.77 318.23 C 500.36 313.20 496.46 307.81 491.70 304.30 C 486.93 300.80 479.04 296.30 474.02 294.98 C 469.01 293.65 454.81 289.56 452.00 295.00 Z"/>
</g>
<g fill="#000000" fill-opacity="0.00" stroke="None">
<path d="
M 0.00 512.00 
L 205.00 512.00
C 100.39 504.29 7.69 411.71 0.00 307.00
L 0.00 512.00
M 34.00 431.00 
C 52.55 436.03 40.78 469.34 22.33 460.67 C 3.88 452.00 14.51 425.72 34.00 431.00 Z"/>
</g>
<g fill="#001837" fill-opacity="1.00" stroke="None">
<path d="
M 227.00 420.00 
C 224.50 424.29 224.64 429.67 227.00 434.00
C 233.36 445.66 246.91 442.39 254.25 434.25 C 261.59 426.11 268.36 419.38 273.00 410.00
C 282.00 391.81 283.12 369.36 277.00 350.00
C 272.09 334.48 266.74 324.37 253.08 312.92 C 239.41 301.48 219.08 326.01 235.25 337.75 C 251.42 349.49 249.66 365.35 250.33 382.33 C 250.99 399.31 234.53 407.05 227.00 420.00 Z"/>
</g>
<g fill="#000000" fill-opacity="0.00" stroke="None">
<path d="
M 444.00 347.00 
C 453.79 339.72 451.00 327.76 451.00 316.00
C 450.26 323.69 448.56 340.21 444.00 347.00 Z"/>
</g>
<g fill="#14DD7A" fill-opacity="1.00" stroke="None">
<path d="
M 124.00 332.00 
C 109.51 328.63 108.26 346.17 96.00 346.00 C 83.74 345.83 71.10 350.83 75.03 364.97 C 78.95 379.12 94.18 376.48 104.99 374.99 C 115.80 373.50 123.25 366.63 130.70 358.70 C 138.14 350.76 135.32 334.63 124.00 332.00 Z"/>
</g>
<g fill="#F5EEE9" fill-opacity="1.00" stroke="None">
<path d="
M 273.00 410.00 
C 278.85 407.48 287.46 410.88 294.00 410.00 C 300.54 409.12 309.27 410.00 316.00 410.00
C 314.28 391.09 314.29 368.91 316.00 350.00
C 303.00 350.00 290.00 350.00 277.00 350.00
C 283.12 369.36 282.00 391.81 273.00 410.00 Z"/>
</g>
<g fill="#A2CCE6" fill-opacity="1.00" stroke="None">
<path d="
M 316.00 410.00 
C 316.50 410.00 317.00 410.00 317.00 410.00
C 318.71 391.08 318.70 368.92 317.00 350.00
C 317.00 350.00 316.50 350.00 316.00 350.00
C 314.29 368.91 314.28 391.09 316.00 410.00 Z"/>
</g>
<g fill="#000000" fill-opacity="0.00" stroke="None">
<path d="
M 415.00 410.00 
C 378.55 464.31 314.16 511.00 247.00 511.00
C 247.04 511.00 247.00 512.00 247.00 512.00
L 512.00 512.00
L 512.00 361.00
C 506.80 378.56 499.04 393.58 481.22 403.22 C 463.41 412.87 435.94 410.00 415.00 410.00
M 461.00 458.00 
C 477.46 461.09 474.64 481.53 464.75 491.75 C 454.85 501.97 441.21 508.32 426.00 507.00 C 410.79 505.68 409.65 476.36 426.03 477.03 C 442.40 477.69 444.47 454.89 461.00 458.00 Z"/>
</g>
<g fill="#FECC00" fill-opacity="0.99" stroke="None">
<path d="
M 227.00 434.00 
C 228.08 458.86 224.11 486.28 226.00 512.00
L 238.00 512.00
C 240.10 510.28 244.15 511.00 247.00 511.00
C 314.16 511.00 378.55 464.31 415.00 410.00
C 382.33 410.00 349.67 409.99 317.00 410.00
C 317.00 410.00 316.50 410.00 316.00 410.00
C 309.27 410.00 300.54 409.12 294.00 410.00 C 287.46 410.88 278.85 407.48 273.00 410.00
C 268.36 419.38 261.59 426.11 254.25 434.25 C 246.91 442.39 233.36 445.66 227.00 434.00 Z"/>
</g>
<g fill="#B660EA" fill-opacity="0.93" stroke="None">
<path d="
M 34.00 431.00 
C 14.51 425.72 3.88 452.00 22.33 460.67 C 40.78 469.34 52.55 436.03 34.00 431.00 Z"/>
</g>
<g fill="#A24ADB" fill-opacity="0.95" stroke="None">
<path d="
M 461.00 458.00 
C 444.47 454.89 442.40 477.69 426.03 477.03 C 409.65 476.36 410.79 505.68 426.00 507.00 C 441.21 508.32 454.85 501.97 464.75 491.75 C 474.64 481.53 477.46 461.09 461.00 458.00 Z"/>
</g>
<g fill="#FFD41C" fill-opacity="0.51" stroke="None">
<path d="
M 238.00 512.00 
L 247.00 512.00
C 247.00 512.00 247.04 511.00 247.00 511.00
C 244.15 511.00 240.10 510.28 238.00 512.00 Z"/>
</g>
</svg>