<svg xmlns="http://www.w3.org/2000/svg" xmlns:v="https://svgstorm.com"
viewBox = "0 0 512 512"
width="512"
height="512">
<g fill="None" fill-opacity="0.0" stroke="#000000" stroke-opacity="0.00" stroke-width="0.3"><path d="
M 0.00 233.00 
C 1.09 225.67 2.69 216.44 3.93 208.93 C 5.17 201.41 7.44 193.07 8.98 185.98 C 10.51 178.88 14.97 171.58 15.93 164.93 C 16.89 158.27 25.33 151.33 24.00 145.00
C 16.45 140.66 10.27 132.30 2.00 129.00
C 11.30 119.55 23.09 113.82 33.25 105.25 C 43.41 96.67 55.94 91.00 65.75 81.75 C 75.55 72.49 76.36 55.60 81.78 42.78 C 87.19 29.96 90.09 13.24 95.00 0.00
L 0.00 0.00
L 0.00 233.00 Z"/>
</g>
<g fill="None" fill-opacity="0.0" stroke="#FF961D" stroke-opacity="1.00" stroke-width="0.3"><path d="
M 24.00 145.00 
C 37.30 152.65 46.08 160.72 59.70 169.30 C 73.31 177.88 75.54 193.85 80.33 208.67 C 85.12 223.49 90.70 239.84 95.00 255.00
C 95.07 255.24 95.74 255.88 96.00 256.00
C 96.41 256.19 97.00 256.00 97.00 256.00
C 111.21 246.92 120.46 237.49 135.08 228.08 C 149.70 218.67 159.79 204.33 180.00 207.00 C 200.21 209.67 225.34 205.00 246.00 207.00
C 244.00 193.67 235.99 180.45 233.68 167.32 C 231.37 154.20 221.18 141.21 221.02 127.98 C 220.87 114.74 231.99 102.02 233.78 88.78 C 235.56 75.53 244.70 62.54 246.00 49.00
C 225.57 50.59 202.13 46.88 182.00 49.00 C 161.87 51.12 150.76 41.17 137.00 29.00
C 124.74 18.42 109.73 10.94 98.00 0.00
L 95.00 0.00
C 90.09 13.24 87.19 29.96 81.78 42.78 C 76.36 55.60 75.55 72.49 65.75 81.75 C 55.94 91.00 43.41 96.67 33.25 105.25 C 23.09 113.82 11.30 119.55 2.00 129.00
C 10.27 132.30 16.45 140.66 24.00 145.00 Z"/>
</g>
<g fill="None" fill-opacity="0.0" stroke="#000000" stroke-opacity="0.00" stroke-width="0.3"><path d="
M 137.00 29.00 
C 166.13 12.26 200.02 4.26 233.00 0.00
L 98.00 0.00
C 109.73 10.94 124.74 18.42 137.00 29.00 Z"/>
</g>
<g fill="None" fill-opacity="0.0" stroke="#FFEA00" stroke-opacity="1.00" stroke-width="0.3"><path d="
M 137.00 29.00 
C 150.76 41.17 161.87 51.12 182.00 49.00 C 202.13 46.88 225.57 50.59 246.00 49.00
C 244.70 62.54 235.56 75.53 233.78 88.78 C 231.99 102.02 220.87 114.74 221.02 127.98 C 221.18 141.21 231.37 154.20 233.68 167.32 C 235.99 180.45 244.00 193.67 246.00 207.00
C 225.34 205.00 200.21 209.67 180.00 207.00 C 159.79 204.33 149.70 218.67 135.08 228.08 C 120.46 237.49 111.21 246.92 97.00 256.00
C 153.67 255.97 210.33 256.00 267.00 256.00
C 299.49 252.86 330.22 236.93 353.00 212.00
C 352.70 210.75 351.17 210.29 351.00 209.00
C 339.41 202.61 323.45 208.77 310.00 207.00 C 296.55 205.23 279.75 208.33 266.00 207.00
C 268.00 193.67 276.01 180.45 278.32 167.32 C 280.63 154.20 290.82 141.21 290.98 127.98 C 291.13 114.74 280.01 102.02 278.22 88.78 C 276.44 75.53 267.30 62.54 266.00 49.00
C 280.55 48.39 296.60 49.82 311.00 49.00 C 325.40 48.18 340.34 51.91 353.00 46.00
C 353.96 41.97 344.72 37.27 342.25 33.75 C 339.78 30.23 333.71 26.13 329.75 23.25 C 325.80 20.37 319.60 16.31 314.77 14.23 C 309.94 12.15 304.10 8.08 298.78 7.22 C 293.45 6.36 285.04 1.76 283.00 1.00
C 281.70 0.97 280.30 0.88 279.00 1.00
C 276.60 1.22 271.51 1.97 269.00 0.00
L 233.00 0.00
C 200.02 4.26 166.13 12.26 137.00 29.00 Z"/>
</g>
<g fill="None" fill-opacity="0.0" stroke="#FFCE00" stroke-opacity="0.52" stroke-width="0.3"><path d="
M 279.00 1.00 
C 278.78 0.87 279.00 0.00 279.00 0.00
L 269.00 0.00
C 271.51 1.97 276.60 1.22 279.00 1.00 Z"/>
</g>
<g fill="None" fill-opacity="0.0" stroke="#000000" stroke-opacity="0.00" stroke-width="0.3"><path d="
M 279.00 1.00 
C 280.30 0.88 281.70 0.97 283.00 1.00
C 315.31 1.63 346.92 15.29 375.00 29.00
C 387.52 18.71 402.07 10.72 414.00 0.00
L 279.00 0.00
C 279.00 0.00 278.78 0.87 279.00 1.00 Z"/>
</g>
<g fill="None" fill-opacity="0.0" stroke="#FF961D" stroke-opacity="1.00" stroke-width="0.3"><path d="
M 375.00 29.00 
C 367.93 34.80 360.64 40.76 353.00 46.00
C 340.34 51.91 325.40 48.18 311.00 49.00 C 296.60 49.82 280.55 48.39 266.00 49.00
C 267.30 62.54 276.44 75.53 278.22 88.78 C 280.01 102.02 291.13 114.74 290.98 127.98 C 290.82 141.21 280.63 154.20 278.32 167.32 C 276.01 180.45 268.00 193.67 266.00 207.00
C 279.75 208.33 296.55 205.23 310.00 207.00 C 323.45 208.77 339.41 202.61 351.00 209.00
C 362.22 215.19 372.29 224.93 382.75 232.25 C 393.21 239.57 406.26 246.85 415.00 256.00
C 415.50 256.00 416.00 256.00 416.00 256.00
C 416.18 254.54 416.58 254.97 417.00 254.00
C 423.04 239.84 426.38 223.14 431.78 208.78 C 437.17 194.41 438.44 177.80 452.25 169.25 C 466.05 160.70 474.94 153.17 488.00 145.00
C 495.43 140.35 501.82 132.53 510.00 129.00
C 500.78 119.47 488.81 113.93 478.75 105.25 C 468.69 96.56 456.03 90.95 446.25 81.75 C 436.48 72.54 435.65 55.56 430.22 42.78 C 424.80 29.99 421.92 13.21 417.00 0.00
L 414.00 0.00
C 402.07 10.72 387.52 18.71 375.00 29.00 Z"/>
</g>
<g fill="None" fill-opacity="0.0" stroke="#000000" stroke-opacity="0.00" stroke-width="0.3"><path d="
M 488.00 145.00 
C 486.59 151.18 494.96 158.50 495.93 165.07 C 496.89 171.65 501.50 178.97 502.93 186.07 C 504.36 193.18 506.93 201.45 508.00 209.00 C 509.06 216.56 510.93 225.73 512.00 233.00
L 512.00 0.00
L 417.00 0.00
C 421.92 13.21 424.80 29.99 430.22 42.78 C 435.65 55.56 436.48 72.54 446.25 81.75 C 456.03 90.95 468.69 96.56 478.75 105.25 C 488.81 113.93 500.78 119.47 510.00 129.00
C 501.82 132.53 495.43 140.35 488.00 145.00 Z"/>
</g>
<g fill="None" fill-opacity="0.0" stroke="#FFCD00" stroke-opacity="0.95" stroke-width="0.3"><path d="
M 353.00 46.00 
C 360.64 40.76 367.93 34.80 375.00 29.00
C 346.92 15.29 315.31 1.63 283.00 1.00
C 285.04 1.76 293.45 6.36 298.78 7.22 C 304.10 8.08 309.94 12.15 314.77 14.23 C 319.60 16.31 325.80 20.37 329.75 23.25 C 333.71 26.13 339.78 30.23 342.25 33.75 C 344.72 37.27 353.96 41.97 353.00 46.00 Z"/>
</g>
<g fill="None" fill-opacity="0.0" stroke="#FFEA00" stroke-opacity="0.99" stroke-width="0.3"><path d="
M 0.00 233.00 
L 0.00 256.00
C 15.56 254.90 32.59 257.46 48.00 256.00 C 63.41 254.54 80.79 259.26 95.00 255.00
C 90.70 239.84 85.12 223.49 80.33 208.67 C 75.54 193.85 73.31 177.88 59.70 169.30 C 46.08 160.72 37.30 152.65 24.00 145.00
C 25.33 151.33 16.89 158.27 15.93 164.93 C 14.97 171.58 10.51 178.88 8.98 185.98 C 7.44 193.07 5.17 201.41 3.93 208.93 C 2.69 216.44 1.09 225.67 0.00 233.00 Z"/>
</g>
<g fill="None" fill-opacity="0.0" stroke="#FFCC00" stroke-opacity="0.99" stroke-width="0.3"><path d="
M 417.00 254.00 
C 425.06 255.13 436.55 256.81 447.00 256.00 C 457.45 255.19 468.33 256.41 479.00 256.00 C 489.67 255.59 501.25 256.31 512.00 256.00
L 512.00 233.00
C 510.93 225.73 509.06 216.56 508.00 209.00 C 506.93 201.45 504.36 193.18 502.93 186.07 C 501.50 178.97 496.89 171.65 495.93 165.07 C 494.96 158.50 486.59 151.18 488.00 145.00
C 474.94 153.17 466.05 160.70 452.25 169.25 C 438.44 177.80 437.17 194.41 431.78 208.78 C 426.38 223.14 423.04 239.84 417.00 254.00 Z"/>
</g>
<g fill="None" fill-opacity="0.0" stroke="#FFCC00" stroke-opacity="1.00" stroke-width="0.3"><path d="
M 267.00 256.00 
C 316.33 256.00 365.67 256.00 415.00 256.00
C 406.26 246.85 393.21 239.57 382.75 232.25 C 372.29 224.93 362.22 215.19 351.00 209.00
C 351.17 210.29 352.70 210.75 353.00 212.00
C 330.22 236.93 299.49 252.86 267.00 256.00 Z"/>
</g>
<g fill="None" fill-opacity="0.0" stroke="#FEB400" stroke-opacity="1.00" stroke-width="0.3"><path d="
M 416.00 256.00 
C 413.16 279.08 411.24 305.99 400.07 326.07 C 388.91 346.15 379.49 360.35 362.00 375.00
C 331.53 400.53 296.80 416.43 256.00 416.00 C 215.20 415.57 180.22 401.34 150.00 375.00
C 143.52 369.35 137.68 363.65 132.00 357.00
C 128.63 364.09 127.82 373.62 128.00 382.00 C 128.18 390.38 128.58 401.15 130.00 409.00 C 131.42 416.85 134.56 423.97 136.93 431.07 C 139.29 438.18 143.00 444.20 146.75 450.25 C 150.50 456.29 153.85 462.21 158.75 467.25 C 163.66 472.28 168.08 477.15 173.25 481.75 C 178.41 486.35 184.35 490.26 190.23 493.77 C 196.11 497.28 203.11 501.44 209.69 503.31 C 216.27 505.17 225.56 509.51 229.00 511.00
C 230.29 511.12 232.49 510.35 233.00 512.00
L 234.00 512.00
C 236.28 510.46 241.79 510.28 244.00 512.00
L 279.00 512.00
C 398.04 503.85 503.87 397.98 512.00 279.00
L 512.00 256.00
C 501.25 256.31 489.67 255.59 479.00 256.00 C 468.33 256.41 457.45 255.19 447.00 256.00 C 436.55 256.81 425.06 255.13 417.00 254.00
C 416.58 254.97 416.18 254.54 416.00 256.00 Z"/>
</g>
<g fill="None" fill-opacity="0.0" stroke="#FECC00" stroke-opacity="0.99" stroke-width="0.3"><path d="
M 0.00 256.00 
L 0.00 279.00
C 8.13 398.01 111.18 499.68 229.00 511.00
C 225.56 509.51 216.27 505.17 209.69 503.31 C 203.11 501.44 196.11 497.28 190.23 493.77 C 184.35 490.26 178.41 486.35 173.25 481.75 C 168.08 477.15 163.66 472.28 158.75 467.25 C 153.85 462.21 150.50 456.29 146.75 450.25 C 143.00 444.20 139.29 438.18 136.93 431.07 C 134.56 423.97 131.42 416.85 130.00 409.00 C 128.58 401.15 128.18 390.38 128.00 382.00 C 127.82 373.62 128.63 364.09 132.00 357.00
C 119.86 342.79 115.18 330.80 107.07 313.93 C 98.97 297.05 98.72 274.88 96.00 256.00
C 95.74 255.88 95.07 255.24 95.00 255.00
C 80.79 259.26 63.41 254.54 48.00 256.00 C 32.59 257.46 15.56 254.90 0.00 256.00 Z"/>
</g>
<g fill="None" fill-opacity="0.0" stroke="#46321E" stroke-opacity="1.00" stroke-width="0.3"><path d="
M 132.00 357.00 
C 137.68 363.65 143.52 369.35 150.00 375.00
C 154.50 370.67 157.18 365.37 161.75 360.75 C 166.33 356.13 170.64 351.86 175.75 347.75 C 180.86 343.64 186.27 340.48 192.08 337.08 C 197.89 333.68 203.40 330.43 210.08 328.08 C 216.75 325.72 223.78 323.74 231.07 322.07 C 238.37 320.40 248.12 320.15 256.00 320.00 C 263.88 319.85 272.70 320.74 280.01 321.99 C 287.32 323.25 294.39 325.70 301.07 327.93 C 307.75 330.15 313.43 333.55 319.23 336.77 C 325.03 339.99 330.55 343.81 335.70 347.30 C 340.85 350.79 345.01 357.19 349.75 360.25 C 354.49 363.31 357.03 374.34 362.00 375.00
C 379.49 360.35 388.91 346.15 400.07 326.07 C 411.24 305.99 413.16 279.08 416.00 256.00
C 416.00 256.00 415.50 256.00 415.00 256.00
C 365.67 256.00 316.33 256.00 267.00 256.00
C 210.33 256.00 153.67 255.97 97.00 256.00
C 97.00 256.00 96.41 256.19 96.00 256.00
C 98.72 274.88 98.97 297.05 107.07 313.93 C 115.18 330.80 119.86 342.79 132.00 357.00 Z"/>
</g>
<g fill="None" fill-opacity="0.0" stroke="#000000" stroke-opacity="0.00" stroke-width="0.3"><path d="
M 0.00 512.00 
L 233.00 512.00
C 232.49 510.35 230.29 511.12 229.00 511.00
C 111.18 499.68 8.13 398.01 0.00 279.00
L 0.00 512.00 Z"/>
</g>
<g fill="None" fill-opacity="0.0" stroke="#000000" stroke-opacity="0.00" stroke-width="0.3"><path d="
M 279.00 512.00 
L 512.00 512.00
L 512.00 279.00
C 503.87 397.98 398.04 503.85 279.00 512.00 Z"/>
</g>
<g fill="None" fill-opacity="0.0" stroke="#C70159" stroke-opacity="1.00" stroke-width="0.3"><path d="
M 150.00 375.00 
C 180.22 401.34 215.20 415.57 256.00 416.00 C 296.80 416.43 331.53 400.53 362.00 375.00
C 357.03 374.34 354.49 363.31 349.75 360.25 C 345.01 357.19 340.85 350.79 335.70 347.30 C 330.55 343.81 325.03 339.99 319.23 336.77 C 313.43 333.55 307.75 330.15 301.07 327.93 C 294.39 325.70 287.32 323.25 280.01 321.99 C 272.70 320.74 263.88 319.85 256.00 320.00 C 248.12 320.15 238.37 320.40 231.07 322.07 C 223.78 323.74 216.75 325.72 210.08 328.08 C 203.40 330.43 197.89 333.68 192.08 337.08 C 186.27 340.48 180.86 343.64 175.75 347.75 C 170.64 351.86 166.33 356.13 161.75 360.75 C 157.18 365.37 154.50 370.67 150.00 375.00 Z"/>
</g>
<g fill="None" fill-opacity="0.0" stroke="#FFC900" stroke-opacity="0.44" stroke-width="0.3"><path d="
M 234.00 512.00 
L 244.00 512.00
C 241.79 510.28 236.28 510.46 234.00 512.00 Z"/>
</g>
<g fill="#000000" fill-opacity="0.00" stroke="None">
<path d="
M 0.00 233.00 
C 1.09 225.67 2.69 216.44 3.93 208.93 C 5.17 201.41 7.44 193.07 8.98 185.98 C 10.51 178.88 14.97 171.58 15.93 164.93 C 16.89 158.27 25.33 151.33 24.00 145.00
C 16.45 140.66 10.27 132.30 2.00 129.00
C 11.30 119.55 23.09 113.82 33.25 105.25 C 43.41 96.67 55.94 91.00 65.75 81.75 C 75.55 72.49 76.36 55.60 81.78 42.78 C 87.19 29.96 90.09 13.24 95.00 0.00
L 0.00 0.00
L 0.00 233.00 Z"/>
</g>
<g fill="#FF961D" fill-opacity="1.00" stroke="None">
<path d="
M 24.00 145.00 
C 37.30 152.65 46.08 160.72 59.70 169.30 C 73.31 177.88 75.54 193.85 80.33 208.67 C 85.12 223.49 90.70 239.84 95.00 255.00
C 95.07 255.24 95.74 255.88 96.00 256.00
C 96.41 256.19 97.00 256.00 97.00 256.00
C 111.21 246.92 120.46 237.49 135.08 228.08 C 149.70 218.67 159.79 204.33 180.00 207.00 C 200.21 209.67 225.34 205.00 246.00 207.00
C 244.00 193.67 235.99 180.45 233.68 167.32 C 231.37 154.20 221.18 141.21 221.02 127.98 C 220.87 114.74 231.99 102.02 233.78 88.78 C 235.56 75.53 244.70 62.54 246.00 49.00
C 225.57 50.59 202.13 46.88 182.00 49.00 C 161.87 51.12 150.76 41.17 137.00 29.00
C 124.74 18.42 109.73 10.94 98.00 0.00
L 95.00 0.00
C 90.09 13.24 87.19 29.96 81.78 42.78 C 76.36 55.60 75.55 72.49 65.75 81.75 C 55.94 91.00 43.41 96.67 33.25 105.25 C 23.09 113.82 11.30 119.55 2.00 129.00
C 10.27 132.30 16.45 140.66 24.00 145.00 Z"/>
</g>
<g fill="#000000" fill-opacity="0.00" stroke="None">
<path d="
M 137.00 29.00 
C 166.13 12.26 200.02 4.26 233.00 0.00
L 98.00 0.00
C 109.73 10.94 124.74 18.42 137.00 29.00 Z"/>
</g>
<g fill="#FFEA00" fill-opacity="1.00" stroke="None">
<path d="
M 137.00 29.00 
C 150.76 41.17 161.87 51.12 182.00 49.00 C 202.13 46.88 225.57 50.59 246.00 49.00
C 244.70 62.54 235.56 75.53 233.78 88.78 C 231.99 102.02 220.87 114.74 221.02 127.98 C 221.18 141.21 231.37 154.20 233.68 167.32 C 235.99 180.45 244.00 193.67 246.00 207.00
C 225.34 205.00 200.21 209.67 180.00 207.00 C 159.79 204.33 149.70 218.67 135.08 228.08 C 120.46 237.49 111.21 246.92 97.00 256.00
C 153.67 255.97 210.33 256.00 267.00 256.00
C 299.49 252.86 330.22 236.93 353.00 212.00
C 352.70 210.75 351.17 210.29 351.00 209.00
C 339.41 202.61 323.45 208.77 310.00 207.00 C 296.55 205.23 279.75 208.33 266.00 207.00
C 268.00 193.67 276.01 180.45 278.32 167.32 C 280.63 154.20 290.82 141.21 290.98 127.98 C 291.13 114.74 280.01 102.02 278.22 88.78 C 276.44 75.53 267.30 62.54 266.00 49.00
C 280.55 48.39 296.60 49.82 311.00 49.00 C 325.40 48.18 340.34 51.91 353.00 46.00
C 353.96 41.97 344.72 37.27 342.25 33.75 C 339.78 30.23 333.71 26.13 329.75 23.25 C 325.80 20.37 319.60 16.31 314.77 14.23 C 309.94 12.15 304.10 8.08 298.78 7.22 C 293.45 6.36 285.04 1.76 283.00 1.00
C 281.70 0.97 280.30 0.88 279.00 1.00
C 276.60 1.22 271.51 1.97 269.00 0.00
L 233.00 0.00
C 200.02 4.26 166.13 12.26 137.00 29.00 Z"/>
</g>
<g fill="#FFCE00" fill-opacity="0.52" stroke="None">
<path d="
M 279.00 1.00 
C 278.78 0.87 279.00 0.00 279.00 0.00
L 269.00 0.00
C 271.51 1.97 276.60 1.22 279.00 1.00 Z"/>
</g>
<g fill="#000000" fill-opacity="0.00" stroke="None">
<path d="
M 279.00 1.00 
C 280.30 0.88 281.70 0.97 283.00 1.00
C 315.31 1.63 346.92 15.29 375.00 29.00
C 387.52 18.71 402.07 10.72 414.00 0.00
L 279.00 0.00
C 279.00 0.00 278.78 0.87 279.00 1.00 Z"/>
</g>
<g fill="#FF961D" fill-opacity="1.00" stroke="None">
<path d="
M 375.00 29.00 
C 367.93 34.80 360.64 40.76 353.00 46.00
C 340.34 51.91 325.40 48.18 311.00 49.00 C 296.60 49.82 280.55 48.39 266.00 49.00
C 267.30 62.54 276.44 75.53 278.22 88.78 C 280.01 102.02 291.13 114.74 290.98 127.98 C 290.82 141.21 280.63 154.20 278.32 167.32 C 276.01 180.45 268.00 193.67 266.00 207.00
C 279.75 208.33 296.55 205.23 310.00 207.00 C 323.45 208.77 339.41 202.61 351.00 209.00
C 362.22 215.19 372.29 224.93 382.75 232.25 C 393.21 239.57 406.26 246.85 415.00 256.00
C 415.50 256.00 416.00 256.00 416.00 256.00
C 416.18 254.54 416.58 254.97 417.00 254.00
C 423.04 239.84 426.38 223.14 431.78 208.78 C 437.17 194.41 438.44 177.80 452.25 169.25 C 466.05 160.70 474.94 153.17 488.00 145.00
C 495.43 140.35 501.82 132.53 510.00 129.00
C 500.78 119.47 488.81 113.93 478.75 105.25 C 468.69 96.56 456.03 90.95 446.25 81.75 C 436.48 72.54 435.65 55.56 430.22 42.78 C 424.80 29.99 421.92 13.21 417.00 0.00
L 414.00 0.00
C 402.07 10.72 387.52 18.71 375.00 29.00 Z"/>
</g>
<g fill="#000000" fill-opacity="0.00" stroke="None">
<path d="
M 488.00 145.00 
C 486.59 151.18 494.96 158.50 495.93 165.07 C 496.89 171.65 501.50 178.97 502.93 186.07 C 504.36 193.18 506.93 201.45 508.00 209.00 C 509.06 216.56 510.93 225.73 512.00 233.00
L 512.00 0.00
L 417.00 0.00
C 421.92 13.21 424.80 29.99 430.22 42.78 C 435.65 55.56 436.48 72.54 446.25 81.75 C 456.03 90.95 468.69 96.56 478.75 105.25 C 488.81 113.93 500.78 119.47 510.00 129.00
C 501.82 132.53 495.43 140.35 488.00 145.00 Z"/>
</g>
<g fill="#FFCD00" fill-opacity="0.95" stroke="None">
<path d="
M 353.00 46.00 
C 360.64 40.76 367.93 34.80 375.00 29.00
C 346.92 15.29 315.31 1.63 283.00 1.00
C 285.04 1.76 293.45 6.36 298.78 7.22 C 304.10 8.08 309.94 12.15 314.77 14.23 C 319.60 16.31 325.80 20.37 329.75 23.25 C 333.71 26.13 339.78 30.23 342.25 33.75 C 344.72 37.27 353.96 41.97 353.00 46.00 Z"/>
</g>
<g fill="#FFEA00" fill-opacity="0.99" stroke="None">
<path d="
M 0.00 233.00 
L 0.00 256.00
C 15.56 254.90 32.59 257.46 48.00 256.00 C 63.41 254.54 80.79 259.26 95.00 255.00
C 90.70 239.84 85.12 223.49 80.33 208.67 C 75.54 193.85 73.31 177.88 59.70 169.30 C 46.08 160.72 37.30 152.65 24.00 145.00
C 25.33 151.33 16.89 158.27 15.93 164.93 C 14.97 171.58 10.51 178.88 8.98 185.98 C 7.44 193.07 5.17 201.41 3.93 208.93 C 2.69 216.44 1.09 225.67 0.00 233.00 Z"/>
</g>
<g fill="#FFCC00" fill-opacity="0.99" stroke="None">
<path d="
M 417.00 254.00 
C 425.06 255.13 436.55 256.81 447.00 256.00 C 457.45 255.19 468.33 256.41 479.00 256.00 C 489.67 255.59 501.25 256.31 512.00 256.00
L 512.00 233.00
C 510.93 225.73 509.06 216.56 508.00 209.00 C 506.93 201.45 504.36 193.18 502.93 186.07 C 501.50 178.97 496.89 171.65 495.93 165.07 C 494.96 158.50 486.59 151.18 488.00 145.00
C 474.94 153.17 466.05 160.70 452.25 169.25 C 438.44 177.80 437.17 194.41 431.78 208.78 C 426.38 223.14 423.04 239.84 417.00 254.00 Z"/>
</g>
<g fill="#FFCC00" fill-opacity="1.00" stroke="None">
<path d="
M 267.00 256.00 
C 316.33 256.00 365.67 256.00 415.00 256.00
C 406.26 246.85 393.21 239.57 382.75 232.25 C 372.29 224.93 362.22 215.19 351.00 209.00
C 351.17 210.29 352.70 210.75 353.00 212.00
C 330.22 236.93 299.49 252.86 267.00 256.00 Z"/>
</g>
<g fill="#FEB400" fill-opacity="1.00" stroke="None">
<path d="
M 416.00 256.00 
C 413.16 279.08 411.24 305.99 400.07 326.07 C 388.91 346.15 379.49 360.35 362.00 375.00
C 331.53 400.53 296.80 416.43 256.00 416.00 C 215.20 415.57 180.22 401.34 150.00 375.00
C 143.52 369.35 137.68 363.65 132.00 357.00
C 128.63 364.09 127.82 373.62 128.00 382.00 C 128.18 390.38 128.58 401.15 130.00 409.00 C 131.42 416.85 134.56 423.97 136.93 431.07 C 139.29 438.18 143.00 444.20 146.75 450.25 C 150.50 456.29 153.85 462.21 158.75 467.25 C 163.66 472.28 168.08 477.15 173.25 481.75 C 178.41 486.35 184.35 490.26 190.23 493.77 C 196.11 497.28 203.11 501.44 209.69 503.31 C 216.27 505.17 225.56 509.51 229.00 511.00
C 230.29 511.12 232.49 510.35 233.00 512.00
L 234.00 512.00
C 236.28 510.46 241.79 510.28 244.00 512.00
L 279.00 512.00
C 398.04 503.85 503.87 397.98 512.00 279.00
L 512.00 256.00
C 501.25 256.31 489.67 255.59 479.00 256.00 C 468.33 256.41 457.45 255.19 447.00 256.00 C 436.55 256.81 425.06 255.13 417.00 254.00
C 416.58 254.97 416.18 254.54 416.00 256.00 Z"/>
</g>
<g fill="#FECC00" fill-opacity="0.99" stroke="None">
<path d="
M 0.00 256.00 
L 0.00 279.00
C 8.13 398.01 111.18 499.68 229.00 511.00
C 225.56 509.51 216.27 505.17 209.69 503.31 C 203.11 501.44 196.11 497.28 190.23 493.77 C 184.35 490.26 178.41 486.35 173.25 481.75 C 168.08 477.15 163.66 472.28 158.75 467.25 C 153.85 462.21 150.50 456.29 146.75 450.25 C 143.00 444.20 139.29 438.18 136.93 431.07 C 134.56 423.97 131.42 416.85 130.00 409.00 C 128.58 401.15 128.18 390.38 128.00 382.00 C 127.82 373.62 128.63 364.09 132.00 357.00
C 119.86 342.79 115.18 330.80 107.07 313.93 C 98.97 297.05 98.72 274.88 96.00 256.00
C 95.74 255.88 95.07 255.24 95.00 255.00
C 80.79 259.26 63.41 254.54 48.00 256.00 C 32.59 257.46 15.56 254.90 0.00 256.00 Z"/>
</g>
<g fill="#46321E" fill-opacity="1.00" stroke="None">
<path d="
M 132.00 357.00 
C 137.68 363.65 143.52 369.35 150.00 375.00
C 154.50 370.67 157.18 365.37 161.75 360.75 C 166.33 356.13 170.64 351.86 175.75 347.75 C 180.86 343.64 186.27 340.48 192.08 337.08 C 197.89 333.68 203.40 330.43 210.08 328.08 C 216.75 325.72 223.78 323.74 231.07 322.07 C 238.37 320.40 248.12 320.15 256.00 320.00 C 263.88 319.85 272.70 320.74 280.01 321.99 C 287.32 323.25 294.39 325.70 301.07 327.93 C 307.75 330.15 313.43 333.55 319.23 336.77 C 325.03 339.99 330.55 343.81 335.70 347.30 C 340.85 350.79 345.01 357.19 349.75 360.25 C 354.49 363.31 357.03 374.34 362.00 375.00
C 379.49 360.35 388.91 346.15 400.07 326.07 C 411.24 305.99 413.16 279.08 416.00 256.00
C 416.00 256.00 415.50 256.00 415.00 256.00
C 365.67 256.00 316.33 256.00 267.00 256.00
C 210.33 256.00 153.67 255.97 97.00 256.00
C 97.00 256.00 96.41 256.19 96.00 256.00
C 98.72 274.88 98.97 297.05 107.07 313.93 C 115.18 330.80 119.86 342.79 132.00 357.00 Z"/>
</g>
<g fill="#000000" fill-opacity="0.00" stroke="None">
<path d="
M 0.00 512.00 
L 233.00 512.00
C 232.49 510.35 230.29 511.12 229.00 511.00
C 111.18 499.68 8.13 398.01 0.00 279.00
L 0.00 512.00 Z"/>
</g>
<g fill="#000000" fill-opacity="0.00" stroke="None">
<path d="
M 279.00 512.00 
L 512.00 512.00
L 512.00 279.00
C 503.87 397.98 398.04 503.85 279.00 512.00 Z"/>
</g>
<g fill="#C70159" fill-opacity="1.00" stroke="None">
<path d="
M 150.00 375.00 
C 180.22 401.34 215.20 415.57 256.00 416.00 C 296.80 416.43 331.53 400.53 362.00 375.00
C 357.03 374.34 354.49 363.31 349.75 360.25 C 345.01 357.19 340.85 350.79 335.70 347.30 C 330.55 343.81 325.03 339.99 319.23 336.77 C 313.43 333.55 307.75 330.15 301.07 327.93 C 294.39 325.70 287.32 323.25 280.01 321.99 C 272.70 320.74 263.88 319.85 256.00 320.00 C 248.12 320.15 238.37 320.40 231.07 322.07 C 223.78 323.74 216.75 325.72 210.08 328.08 C 203.40 330.43 197.89 333.68 192.08 337.08 C 186.27 340.48 180.86 343.64 175.75 347.75 C 170.64 351.86 166.33 356.13 161.75 360.75 C 157.18 365.37 154.50 370.67 150.00 375.00 Z"/>
</g>
<g fill="#FFC900" fill-opacity="0.44" stroke="None">
<path d="
M 234.00 512.00 
L 244.00 512.00
C 241.79 510.28 236.28 510.46 234.00 512.00 Z"/>
</g>
</svg>