<svg xmlns="http://www.w3.org/2000/svg" xmlns:v="https://svgstorm.com"
viewBox = "0 0 512 512"
width="512"
height="512">
<g fill="None" fill-opacity="0.0" stroke="#000000" stroke-opacity="0.00" stroke-width="0.3"><path d="
M 0.00 396.00 
C 1.16 379.90 16.87 369.14 27.75 357.75 C 38.64 346.37 49.74 336.01 60.75 324.75 C 71.77 313.50 83.16 302.50 94.25 291.25 C 105.33 280.00 116.09 269.60 127.25 258.25 C 138.41 246.89 148.92 236.95 160.25 225.25 C 171.58 213.55 182.09 204.18 193.75 191.75 C 205.42 179.32 224.13 174.17 241.00 173.00 C 257.87 171.83 283.88 172.85 295.75 160.75 C 307.62 148.66 317.45 139.01 328.75 127.75 C 340.05 116.50 351.79 97.68 365.75 111.25 C 379.72 124.82 384.46 131.71 399.25 144.75 C 414.03 157.80 398.19 170.86 385.75 181.75 C 373.31 192.64 365.91 203.39 352.75 214.75 C 339.59 226.11 340.03 251.11 339.02 268.02 C 338.01 284.94 334.09 304.82 321.75 316.75 C 309.41 328.69 299.91 338.79 288.25 350.25 C 276.59 361.71 266.59 372.04 255.25 383.25 C 243.90 394.46 233.51 405.15 222.25 416.25 C 210.99 427.35 200.04 438.74 188.75 449.75 C 177.46 460.77 167.21 471.87 155.75 482.75 C 144.29 493.63 133.51 509.17 118.00 512.00
L 512.00 512.00
L 512.00 56.00
C 511.09 65.80 505.98 67.91 499.25 76.25 C 492.52 84.58 483.12 91.80 473.00 91.00 C 462.88 90.20 457.83 105.96 450.75 109.75 C 443.67 113.54 435.17 131.53 426.33 125.67 C 417.49 119.81 412.21 111.73 405.25 104.75 C 398.29 97.77 388.60 92.17 386.01 82.99 C 383.41 73.81 399.36 66.95 403.75 59.75 C 408.15 52.56 423.35 46.32 421.00 36.00 C 418.65 25.68 428.04 21.35 435.25 13.25 C 442.45 5.15 448.35 0.72 458.00 0.00
L 0.00 0.00
L 0.00 396.00
M 365.00 1.00 
C 371.72 8.79 370.50 19.19 374.77 27.23 C 379.04 35.27 376.60 50.22 365.97 48.98 C 355.35 47.74 356.13 35.67 353.23 27.77 C 350.33 19.87 347.15 8.45 353.00 1.00
C 356.44 1.32 361.54 1.32 365.00 1.00
M 315.00 29.00 
C 321.85 37.81 329.97 46.49 338.75 54.25 C 347.54 62.00 334.31 74.95 326.70 68.29 C 319.08 61.62 310.09 53.41 302.30 45.70 C 294.52 37.99 306.61 25.75 315.00 29.00
M 283.00 77.00 
C 293.10 77.33 299.57 85.33 311.25 85.20 C 322.92 85.06 322.39 106.97 309.33 105.67 C 296.26 104.36 294.24 99.70 281.08 97.87 C 267.92 96.04 268.94 76.54 283.00 77.00
M 511.00 147.00 
C 510.68 150.44 510.68 155.54 511.00 159.00
C 498.01 168.98 490.82 155.60 476.25 156.40 C 461.68 157.19 459.71 132.52 475.74 135.40 C 491.78 138.28 497.00 140.79 511.00 147.00
M 483.00 197.00 
C 485.53 206.03 475.67 216.61 466.75 209.81 C 457.82 203.02 449.92 193.13 443.74 185.25 C 437.55 177.37 449.06 165.10 457.30 172.71 C 465.55 180.32 473.76 191.06 483.00 197.00
M 415.00 191.00 
C 425.35 189.99 428.27 203.91 429.80 212.25 C 431.33 220.58 440.13 235.35 427.75 239.80 C 415.37 244.25 412.66 226.30 410.81 218.75 C 408.96 211.20 401.15 192.35 415.00 191.00 Z"/>
</g>
<g fill="None" fill-opacity="0.0" stroke="#000000" stroke-opacity="1.00" stroke-width="0.3"><path d="
M 512.00 56.00 
L 512.00 52.00
C 511.47 39.23 500.83 32.22 490.75 22.25 C 480.67 12.28 473.22 1.25 461.00 0.00
L 458.00 0.00
C 448.35 0.72 442.45 5.15 435.25 13.25 C 428.04 21.35 418.65 25.68 421.00 36.00 C 423.35 46.32 408.15 52.56 403.75 59.75 C 399.36 66.95 383.41 73.81 386.01 82.99 C 388.60 92.17 398.29 97.77 405.25 104.75 C 412.21 111.73 417.49 119.81 426.33 125.67 C 435.17 131.53 443.67 113.54 450.75 109.75 C 457.83 105.96 462.88 90.20 473.00 91.00 C 483.12 91.80 492.52 84.58 499.25 76.25 C 505.98 67.91 511.09 65.80 512.00 56.00
M 476.00 71.00 
C 472.72 72.53 468.86 71.52 465.00 72.00
C 450.95 75.48 442.46 94.77 431.00 103.00
C 423.17 96.66 416.78 88.29 409.00 82.00
C 418.19 69.62 434.16 60.92 440.00 47.00
C 440.48 43.11 439.47 39.27 441.00 36.00
C 444.97 27.51 457.35 16.30 464.75 24.25 C 472.16 32.20 478.83 39.51 487.25 46.75 C 495.66 54.00 484.94 66.82 476.00 71.00 Z"/>
</g>
<g fill="None" fill-opacity="0.0" stroke="#000000" stroke-opacity="0.03" stroke-width="0.3"><path d="
M 512.00 52.00 
L 512.00 0.00
L 461.00 0.00
C 473.22 1.25 480.67 12.28 490.75 22.25 C 500.83 32.22 511.47 39.23 512.00 52.00 Z"/>
</g>
<g fill="None" fill-opacity="0.0" stroke="#000000" stroke-opacity="0.97" stroke-width="0.3"><path d="
M 365.00 1.00 
C 361.54 1.32 356.44 1.32 353.00 1.00
C 347.15 8.45 350.33 19.87 353.23 27.77 C 356.13 35.67 355.35 47.74 365.97 48.98 C 376.60 50.22 379.04 35.27 374.77 27.23 C 370.50 19.19 371.72 8.79 365.00 1.00 Z"/>
</g>
<g fill="None" fill-opacity="0.0" stroke="#FCD78D" stroke-opacity="1.00" stroke-width="0.3"><path d="
M 441.00 36.00 
C 440.03 39.24 440.73 44.07 440.00 47.00
C 434.16 60.92 418.19 69.62 409.00 82.00
C 416.78 88.29 423.17 96.66 431.00 103.00
C 442.46 94.77 450.95 75.48 465.00 72.00
C 467.98 71.26 472.76 71.97 476.00 71.00
C 484.94 66.82 495.66 54.00 487.25 46.75 C 478.83 39.51 472.16 32.20 464.75 24.25 C 457.35 16.30 444.97 27.51 441.00 36.00 Z"/>
</g>
<g fill="None" fill-opacity="0.0" stroke="#000000" stroke-opacity="0.98" stroke-width="0.3"><path d="
M 315.00 29.00 
C 306.61 25.75 294.52 37.99 302.30 45.70 C 310.09 53.41 319.08 61.62 326.70 68.29 C 334.31 74.95 347.54 62.00 338.75 54.25 C 329.97 46.49 321.85 37.81 315.00 29.00 Z"/>
</g>
<g fill="None" fill-opacity="0.0" stroke="#8E7950" stroke-opacity="1.00" stroke-width="0.3"><path d="
M 440.00 47.00 
C 440.73 44.07 440.03 39.24 441.00 36.00
C 439.47 39.27 440.48 43.11 440.00 47.00 Z"/>
</g>
<g fill="None" fill-opacity="0.0" stroke="#88744C" stroke-opacity="1.00" stroke-width="0.3"><path d="
M 465.00 72.00 
C 468.86 71.52 472.72 72.53 476.00 71.00
C 472.76 71.97 467.98 71.26 465.00 72.00 Z"/>
</g>
<g fill="None" fill-opacity="0.0" stroke="#000000" stroke-opacity="0.96" stroke-width="0.3"><path d="
M 283.00 77.00 
C 268.94 76.54 267.92 96.04 281.08 97.87 C 294.24 99.70 296.26 104.36 309.33 105.67 C 322.39 106.97 322.92 85.06 311.25 85.20 C 299.57 85.33 293.10 77.33 283.00 77.00 Z"/>
</g>
<g fill="None" fill-opacity="0.0" stroke="#000000" stroke-opacity="1.00" stroke-width="0.3"><path d="
M 0.00 396.00 
L 0.00 400.00
C 9.48 423.48 33.48 442.24 52.25 460.75 C 71.02 479.27 89.49 504.93 114.00 512.00
L 118.00 512.00
C 133.51 509.17 144.29 493.63 155.75 482.75 C 167.21 471.87 177.46 460.77 188.75 449.75 C 200.04 438.74 210.99 427.35 222.25 416.25 C 233.51 405.15 243.90 394.46 255.25 383.25 C 266.59 372.04 276.59 361.71 288.25 350.25 C 299.91 338.79 309.41 328.69 321.75 316.75 C 334.09 304.82 338.01 284.94 339.02 268.02 C 340.03 251.11 339.59 226.11 352.75 214.75 C 365.91 203.39 373.31 192.64 385.75 181.75 C 398.19 170.86 414.03 157.80 399.25 144.75 C 384.46 131.71 379.72 124.82 365.75 111.25 C 351.79 97.68 340.05 116.50 328.75 127.75 C 317.45 139.01 307.62 148.66 295.75 160.75 C 283.88 172.85 257.87 171.83 241.00 173.00 C 224.13 174.17 205.42 179.32 193.75 191.75 C 182.09 204.18 171.58 213.55 160.25 225.25 C 148.92 236.95 138.41 246.89 127.25 258.25 C 116.09 269.60 105.33 280.00 94.25 291.25 C 83.16 302.50 71.77 313.50 60.75 324.75 C 49.74 336.01 38.64 346.37 27.75 357.75 C 16.87 369.14 1.16 379.90 0.00 396.00
M 356.00 129.00 
C 364.51 138.33 373.71 147.55 383.00 156.00
C 369.07 173.75 350.06 188.79 335.00 206.00
C 324.27 199.05 316.20 187.07 306.00 179.00
C 320.86 161.64 338.67 143.84 356.00 129.00
M 307.00 304.00 
C 303.61 307.96 299.21 312.92 295.25 316.25 C 291.28 319.58 287.36 325.69 283.25 328.25 C 279.13 330.81 275.60 339.62 271.00 340.00
C 265.65 340.45 260.86 330.12 256.25 326.75 C 251.64 323.39 244.45 315.22 238.00 323.00
C 231.86 330.40 239.54 336.45 242.75 341.25 C 245.97 346.04 256.00 349.93 256.00 355.00
C 256.00 360.05 245.00 364.61 242.25 369.25 C 239.50 373.89 232.06 378.72 228.25 383.25 C 224.43 387.78 218.56 392.92 214.25 397.25 C 209.94 401.58 204.82 407.35 200.25 411.25 C 195.68 415.15 191.02 422.29 186.25 425.25 C 181.48 428.21 177.30 438.56 172.00 439.00
C 165.87 439.51 160.15 426.68 154.75 423.25 C 149.36 419.82 143.55 411.32 138.25 406.75 C 132.95 402.19 126.83 395.32 121.75 390.25 C 116.68 385.17 109.82 379.05 105.25 373.75 C 100.68 368.45 92.19 362.65 88.75 357.25 C 85.31 351.85 72.49 346.12 73.00 340.00
C 73.45 334.66 83.81 330.52 86.75 325.75 C 89.70 320.98 96.86 316.33 100.75 311.75 C 104.64 307.18 110.43 302.07 114.75 297.75 C 119.08 293.44 124.22 287.57 128.75 283.75 C 133.28 279.93 138.11 272.52 142.75 269.75 C 147.39 266.99 152.00 256.00 157.00 256.00
C 162.11 256.00 165.96 266.05 170.75 269.25 C 175.54 272.45 181.60 280.14 189.00 274.00
C 196.79 267.54 188.62 260.37 185.25 255.75 C 181.88 251.13 171.55 246.35 172.00 241.00
C 172.39 236.35 181.21 232.87 183.75 228.75 C 186.29 224.64 192.43 220.71 195.75 216.75 C 199.07 212.79 204.09 208.34 208.00 205.00
C 229.99 186.21 261.53 194.22 288.00 188.00
C 299.50 200.33 311.71 212.55 324.00 224.00
C 318.19 250.48 325.66 282.08 307.00 304.00
M 157.00 454.00 
C 157.00 458.26 147.67 462.43 145.25 466.25 C 142.82 470.07 136.64 474.68 133.25 478.25 C 129.85 481.82 125.22 487.41 121.00 490.00
C 107.78 498.10 92.30 472.80 82.75 464.25 C 73.20 455.70 56.73 439.41 48.25 429.75 C 39.76 420.09 13.83 404.34 22.00 391.00
C 24.63 386.71 30.18 382.16 33.75 378.75 C 37.32 375.34 41.93 369.20 45.75 366.75 C 49.57 364.31 53.78 355.00 58.00 355.00
C 63.08 355.00 67.55 366.00 72.25 368.75 C 76.94 371.51 81.62 378.92 86.25 382.75 C 90.88 386.58 95.71 392.40 100.25 396.75 C 104.79 401.11 110.42 406.68 114.75 411.25 C 119.09 415.82 124.94 420.58 128.75 425.25 C 132.56 429.91 140.03 434.48 142.75 439.25 C 145.47 444.01 157.00 448.87 157.00 454.00 Z"/>
</g>
<g fill="None" fill-opacity="0.0" stroke="#FBCA67" stroke-opacity="1.00" stroke-width="0.3"><path d="
M 356.00 129.00 
C 338.67 143.84 320.86 161.64 306.00 179.00
C 316.20 187.07 324.27 199.05 335.00 206.00
C 350.06 188.79 369.07 173.75 383.00 156.00
C 373.71 147.55 364.51 138.33 356.00 129.00 Z"/>
</g>
<g fill="None" fill-opacity="0.0" stroke="#000000" stroke-opacity="0.97" stroke-width="0.3"><path d="
M 511.00 147.00 
C 497.00 140.79 491.78 138.28 475.74 135.40 C 459.71 132.52 461.68 157.19 476.25 156.40 C 490.82 155.60 498.01 168.98 511.00 159.00
C 510.68 155.54 510.68 150.44 511.00 147.00 Z"/>
</g>
<g fill="None" fill-opacity="0.0" stroke="#000000" stroke-opacity="0.96" stroke-width="0.3"><path d="
M 483.00 197.00 
C 473.76 191.06 465.55 180.32 457.30 172.71 C 449.06 165.10 437.55 177.37 443.74 185.25 C 449.92 193.13 457.82 203.02 466.75 209.81 C 475.67 216.61 485.53 206.03 483.00 197.00 Z"/>
</g>
<g fill="None" fill-opacity="0.0" stroke="#89A7BC" stroke-opacity="1.00" stroke-width="0.3"><path d="
M 208.00 205.00 
C 196.08 216.92 184.60 229.86 172.00 241.00
C 171.55 246.35 181.88 251.13 185.25 255.75 C 188.62 260.37 196.79 267.54 189.00 274.00
C 191.70 274.35 195.82 280.36 197.75 282.25 C 199.68 284.14 205.59 288.34 206.00 291.00
C 214.78 280.83 231.16 297.23 221.00 306.00
C 223.71 306.42 227.84 312.34 229.75 314.25 C 231.66 316.16 237.65 320.35 238.00 323.00
C 244.45 315.22 251.64 323.39 256.25 326.75 C 260.86 330.12 265.65 340.45 271.00 340.00
C 282.19 327.35 295.13 315.87 307.00 304.00
C 325.66 282.08 318.19 250.48 324.00 224.00
C 311.71 212.55 299.50 200.33 288.00 188.00
C 261.53 194.22 229.99 186.21 208.00 205.00 Z"/>
</g>
<g fill="None" fill-opacity="0.0" stroke="#000000" stroke-opacity="0.96" stroke-width="0.3"><path d="
M 415.00 191.00 
C 401.15 192.35 408.96 211.20 410.81 218.75 C 412.66 226.30 415.37 244.25 427.75 239.80 C 440.13 235.35 431.33 220.58 429.80 212.25 C 428.27 203.91 425.35 189.99 415.00 191.00 Z"/>
</g>
<g fill="None" fill-opacity="0.0" stroke="#404E58" stroke-opacity="1.00" stroke-width="0.3"><path d="
M 172.00 241.00 
C 184.60 229.86 196.08 216.92 208.00 205.00
C 204.09 208.34 199.07 212.79 195.75 216.75 C 192.43 220.71 186.29 224.64 183.75 228.75 C 181.21 232.87 172.39 236.35 172.00 241.00 Z"/>
</g>
<g fill="None" fill-opacity="0.0" stroke="#7A6232" stroke-opacity="1.00" stroke-width="0.3"><path d="
M 73.00 340.00 
C 101.33 312.50 129.55 284.29 157.00 256.00
C 152.00 256.00 147.39 266.99 142.75 269.75 C 138.11 272.52 133.28 279.93 128.75 283.75 C 124.22 287.57 119.08 293.44 114.75 297.75 C 110.43 302.07 104.64 307.18 100.75 311.75 C 96.86 316.33 89.70 320.98 86.75 325.75 C 83.81 330.52 73.45 334.66 73.00 340.00 Z"/>
</g>
<g fill="None" fill-opacity="0.0" stroke="#FECC68" stroke-opacity="1.00" stroke-width="0.3"><path d="
M 73.00 340.00 
C 72.49 346.12 85.31 351.85 88.75 357.25 C 92.19 362.65 100.68 368.45 105.25 373.75 C 109.82 379.05 116.68 385.17 121.75 390.25 C 126.83 395.32 132.95 402.19 138.25 406.75 C 143.55 411.32 149.36 419.82 154.75 423.25 C 160.15 426.68 165.87 439.51 172.00 439.00
C 199.50 410.67 227.71 382.45 256.00 355.00
C 256.00 349.93 245.97 346.04 242.75 341.25 C 239.54 336.45 231.86 330.40 238.00 323.00
C 237.65 320.35 231.66 316.16 229.75 314.25 C 227.84 312.34 223.71 306.42 221.00 306.00
C 211.66 314.06 197.92 300.36 206.00 291.00
C 205.59 288.34 199.68 284.14 197.75 282.25 C 195.82 280.36 191.70 274.35 189.00 274.00
C 181.60 280.14 175.54 272.45 170.75 269.25 C 165.96 266.05 162.11 256.00 157.00 256.00
C 129.55 284.29 101.33 312.50 73.00 340.00 Z"/>
</g>
<g fill="None" fill-opacity="0.0" stroke="#000000" stroke-opacity="1.00" stroke-width="0.3"><path d="
M 206.00 291.00 
C 197.92 300.36 211.66 314.06 221.00 306.00
C 231.16 297.23 214.78 280.83 206.00 291.00 Z"/>
</g>
<g fill="None" fill-opacity="0.0" stroke="#44535D" stroke-opacity="1.00" stroke-width="0.3"><path d="
M 271.00 340.00 
C 275.60 339.62 279.13 330.81 283.25 328.25 C 287.36 325.69 291.28 319.58 295.25 316.25 C 299.21 312.92 303.61 307.96 307.00 304.00
C 295.13 315.87 282.19 327.35 271.00 340.00 Z"/>
</g>
<g fill="None" fill-opacity="0.0" stroke="#404E58" stroke-opacity="1.00" stroke-width="0.3"><path d="
M 22.00 391.00 
C 31.68 377.58 48.54 368.72 58.00 355.00
C 53.78 355.00 49.57 364.31 45.75 366.75 C 41.93 369.20 37.32 375.34 33.75 378.75 C 30.18 382.16 24.63 386.71 22.00 391.00 Z"/>
</g>
<g fill="None" fill-opacity="0.0" stroke="#89A7BC" stroke-opacity="1.00" stroke-width="0.3"><path d="
M 22.00 391.00 
C 13.83 404.34 39.76 420.09 48.25 429.75 C 56.73 439.41 73.20 455.70 82.75 464.25 C 92.30 472.80 107.78 498.10 121.00 490.00
C 134.42 480.32 143.28 463.46 157.00 454.00
C 157.00 448.87 145.47 444.01 142.75 439.25 C 140.03 434.48 132.56 429.91 128.75 425.25 C 124.94 420.58 119.09 415.82 114.75 411.25 C 110.42 406.68 104.79 401.11 100.25 396.75 C 95.71 392.40 90.88 386.58 86.25 382.75 C 81.62 378.92 76.94 371.51 72.25 368.75 C 67.55 366.00 63.08 355.00 58.00 355.00
C 48.54 368.72 31.68 377.58 22.00 391.00 Z"/>
</g>
<g fill="None" fill-opacity="0.0" stroke="#7E6634" stroke-opacity="1.00" stroke-width="0.3"><path d="
M 172.00 439.00 
C 177.30 438.56 181.48 428.21 186.25 425.25 C 191.02 422.29 195.68 415.15 200.25 411.25 C 204.82 407.35 209.94 401.58 214.25 397.25 C 218.56 392.92 224.43 387.78 228.25 383.25 C 232.06 378.72 239.50 373.89 242.25 369.25 C 245.00 364.61 256.00 360.05 256.00 355.00
C 227.71 382.45 199.50 410.67 172.00 439.00 Z"/>
</g>
<g fill="None" fill-opacity="0.0" stroke="#000000" stroke-opacity="0.02" stroke-width="0.3"><path d="
M 0.00 512.00 
L 114.00 512.00
C 89.49 504.93 71.02 479.27 52.25 460.75 C 33.48 442.24 9.48 423.48 0.00 400.00
L 0.00 512.00 Z"/>
</g>
<g fill="None" fill-opacity="0.0" stroke="#44535D" stroke-opacity="1.00" stroke-width="0.3"><path d="
M 121.00 490.00 
C 125.22 487.41 129.85 481.82 133.25 478.25 C 136.64 474.68 142.82 470.07 145.25 466.25 C 147.67 462.43 157.00 458.26 157.00 454.00
C 143.28 463.46 134.42 480.32 121.00 490.00 Z"/>
</g>
<g fill="#000000" fill-opacity="0.00" stroke="None">
<path d="
M 0.00 396.00 
C 1.16 379.90 16.87 369.14 27.75 357.75 C 38.64 346.37 49.74 336.01 60.75 324.75 C 71.77 313.50 83.16 302.50 94.25 291.25 C 105.33 280.00 116.09 269.60 127.25 258.25 C 138.41 246.89 148.92 236.95 160.25 225.25 C 171.58 213.55 182.09 204.18 193.75 191.75 C 205.42 179.32 224.13 174.17 241.00 173.00 C 257.87 171.83 283.88 172.85 295.75 160.75 C 307.62 148.66 317.45 139.01 328.75 127.75 C 340.05 116.50 351.79 97.68 365.75 111.25 C 379.72 124.82 384.46 131.71 399.25 144.75 C 414.03 157.80 398.19 170.86 385.75 181.75 C 373.31 192.64 365.91 203.39 352.75 214.75 C 339.59 226.11 340.03 251.11 339.02 268.02 C 338.01 284.94 334.09 304.82 321.75 316.75 C 309.41 328.69 299.91 338.79 288.25 350.25 C 276.59 361.71 266.59 372.04 255.25 383.25 C 243.90 394.46 233.51 405.15 222.25 416.25 C 210.99 427.35 200.04 438.74 188.75 449.75 C 177.46 460.77 167.21 471.87 155.75 482.75 C 144.29 493.63 133.51 509.17 118.00 512.00
L 512.00 512.00
L 512.00 56.00
C 511.09 65.80 505.98 67.91 499.25 76.25 C 492.52 84.58 483.12 91.80 473.00 91.00 C 462.88 90.20 457.83 105.96 450.75 109.75 C 443.67 113.54 435.17 131.53 426.33 125.67 C 417.49 119.81 412.21 111.73 405.25 104.75 C 398.29 97.77 388.60 92.17 386.01 82.99 C 383.41 73.81 399.36 66.95 403.75 59.75 C 408.15 52.56 423.35 46.32 421.00 36.00 C 418.65 25.68 428.04 21.35 435.25 13.25 C 442.45 5.15 448.35 0.72 458.00 0.00
L 0.00 0.00
L 0.00 396.00
M 365.00 1.00 
C 371.72 8.79 370.50 19.19 374.77 27.23 C 379.04 35.27 376.60 50.22 365.97 48.98 C 355.35 47.74 356.13 35.67 353.23 27.77 C 350.33 19.87 347.15 8.45 353.00 1.00
C 356.44 1.32 361.54 1.32 365.00 1.00
M 315.00 29.00 
C 321.85 37.81 329.97 46.49 338.75 54.25 C 347.54 62.00 334.31 74.95 326.70 68.29 C 319.08 61.62 310.09 53.41 302.30 45.70 C 294.52 37.99 306.61 25.75 315.00 29.00
M 283.00 77.00 
C 293.10 77.33 299.57 85.33 311.25 85.20 C 322.92 85.06 322.39 106.97 309.33 105.67 C 296.26 104.36 294.24 99.70 281.08 97.87 C 267.92 96.04 268.94 76.54 283.00 77.00
M 511.00 147.00 
C 510.68 150.44 510.68 155.54 511.00 159.00
C 498.01 168.98 490.82 155.60 476.25 156.40 C 461.68 157.19 459.71 132.52 475.74 135.40 C 491.78 138.28 497.00 140.79 511.00 147.00
M 483.00 197.00 
C 485.53 206.03 475.67 216.61 466.75 209.81 C 457.82 203.02 449.92 193.13 443.74 185.25 C 437.55 177.37 449.06 165.10 457.30 172.71 C 465.55 180.32 473.76 191.06 483.00 197.00
M 415.00 191.00 
C 425.35 189.99 428.27 203.91 429.80 212.25 C 431.33 220.58 440.13 235.35 427.75 239.80 C 415.37 244.25 412.66 226.30 410.81 218.75 C 408.96 211.20 401.15 192.35 415.00 191.00 Z"/>
</g>
<g fill="#000000" fill-opacity="1.00" stroke="None">
<path d="
M 512.00 56.00 
L 512.00 52.00
C 511.47 39.23 500.83 32.22 490.75 22.25 C 480.67 12.28 473.22 1.25 461.00 0.00
L 458.00 0.00
C 448.35 0.72 442.45 5.15 435.25 13.25 C 428.04 21.35 418.65 25.68 421.00 36.00 C 423.35 46.32 408.15 52.56 403.75 59.75 C 399.36 66.95 383.41 73.81 386.01 82.99 C 388.60 92.17 398.29 97.77 405.25 104.75 C 412.21 111.73 417.49 119.81 426.33 125.67 C 435.17 131.53 443.67 113.54 450.75 109.75 C 457.83 105.96 462.88 90.20 473.00 91.00 C 483.12 91.80 492.52 84.58 499.25 76.25 C 505.98 67.91 511.09 65.80 512.00 56.00
M 476.00 71.00 
C 472.72 72.53 468.86 71.52 465.00 72.00
C 450.95 75.48 442.46 94.77 431.00 103.00
C 423.17 96.66 416.78 88.29 409.00 82.00
C 418.19 69.62 434.16 60.92 440.00 47.00
C 440.48 43.11 439.47 39.27 441.00 36.00
C 444.97 27.51 457.35 16.30 464.75 24.25 C 472.16 32.20 478.83 39.51 487.25 46.75 C 495.66 54.00 484.94 66.82 476.00 71.00 Z"/>
</g>
<g fill="#000000" fill-opacity="0.03" stroke="None">
<path d="
M 512.00 52.00 
L 512.00 0.00
L 461.00 0.00
C 473.22 1.25 480.67 12.28 490.75 22.25 C 500.83 32.22 511.47 39.23 512.00 52.00 Z"/>
</g>
<g fill="#000000" fill-opacity="0.97" stroke="None">
<path d="
M 365.00 1.00 
C 361.54 1.32 356.44 1.32 353.00 1.00
C 347.15 8.45 350.33 19.87 353.23 27.77 C 356.13 35.67 355.35 47.74 365.97 48.98 C 376.60 50.22 379.04 35.27 374.77 27.23 C 370.50 19.19 371.72 8.79 365.00 1.00 Z"/>
</g>
<g fill="#FCD78D" fill-opacity="1.00" stroke="None">
<path d="
M 441.00 36.00 
C 440.03 39.24 440.73 44.07 440.00 47.00
C 434.16 60.92 418.19 69.62 409.00 82.00
C 416.78 88.29 423.17 96.66 431.00 103.00
C 442.46 94.77 450.95 75.48 465.00 72.00
C 467.98 71.26 472.76 71.97 476.00 71.00
C 484.94 66.82 495.66 54.00 487.25 46.75 C 478.83 39.51 472.16 32.20 464.75 24.25 C 457.35 16.30 444.97 27.51 441.00 36.00 Z"/>
</g>
<g fill="#000000" fill-opacity="0.98" stroke="None">
<path d="
M 315.00 29.00 
C 306.61 25.75 294.52 37.99 302.30 45.70 C 310.09 53.41 319.08 61.62 326.70 68.29 C 334.31 74.95 347.54 62.00 338.75 54.25 C 329.97 46.49 321.85 37.81 315.00 29.00 Z"/>
</g>
<g fill="#8E7950" fill-opacity="1.00" stroke="None">
<path d="
M 440.00 47.00 
C 440.73 44.07 440.03 39.24 441.00 36.00
C 439.47 39.27 440.48 43.11 440.00 47.00 Z"/>
</g>
<g fill="#88744C" fill-opacity="1.00" stroke="None">
<path d="
M 465.00 72.00 
C 468.86 71.52 472.72 72.53 476.00 71.00
C 472.76 71.97 467.98 71.26 465.00 72.00 Z"/>
</g>
<g fill="#000000" fill-opacity="0.96" stroke="None">
<path d="
M 283.00 77.00 
C 268.94 76.54 267.92 96.04 281.08 97.87 C 294.24 99.70 296.26 104.36 309.33 105.67 C 322.39 106.97 322.92 85.06 311.25 85.20 C 299.57 85.33 293.10 77.33 283.00 77.00 Z"/>
</g>
<g fill="#000000" fill-opacity="1.00" stroke="None">
<path d="
M 0.00 396.00 
L 0.00 400.00
C 9.48 423.48 33.48 442.24 52.25 460.75 C 71.02 479.27 89.49 504.93 114.00 512.00
L 118.00 512.00
C 133.51 509.17 144.29 493.63 155.75 482.75 C 167.21 471.87 177.46 460.77 188.75 449.75 C 200.04 438.74 210.99 427.35 222.25 416.25 C 233.51 405.15 243.90 394.46 255.25 383.25 C 266.59 372.04 276.59 361.71 288.25 350.25 C 299.91 338.79 309.41 328.69 321.75 316.75 C 334.09 304.82 338.01 284.94 339.02 268.02 C 340.03 251.11 339.59 226.11 352.75 214.75 C 365.91 203.39 373.31 192.64 385.75 181.75 C 398.19 170.86 414.03 157.80 399.25 144.75 C 384.46 131.71 379.72 124.82 365.75 111.25 C 351.79 97.68 340.05 116.50 328.75 127.75 C 317.45 139.01 307.62 148.66 295.75 160.75 C 283.88 172.85 257.87 171.83 241.00 173.00 C 224.13 174.17 205.42 179.32 193.75 191.75 C 182.09 204.18 171.58 213.55 160.25 225.25 C 148.92 236.95 138.41 246.89 127.25 258.25 C 116.09 269.60 105.33 280.00 94.25 291.25 C 83.16 302.50 71.77 313.50 60.75 324.75 C 49.74 336.01 38.64 346.37 27.75 357.75 C 16.87 369.14 1.16 379.90 0.00 396.00
M 356.00 129.00 
C 364.51 138.33 373.71 147.55 383.00 156.00
C 369.07 173.75 350.06 188.79 335.00 206.00
C 324.27 199.05 316.20 187.07 306.00 179.00
C 320.86 161.64 338.67 143.84 356.00 129.00
M 307.00 304.00 
C 303.61 307.96 299.21 312.92 295.25 316.25 C 291.28 319.58 287.36 325.69 283.25 328.25 C 279.13 330.81 275.60 339.62 271.00 340.00
C 265.65 340.45 260.86 330.12 256.25 326.75 C 251.64 323.39 244.45 315.22 238.00 323.00
C 231.86 330.40 239.54 336.45 242.75 341.25 C 245.97 346.04 256.00 349.93 256.00 355.00
C 256.00 360.05 245.00 364.61 242.25 369.25 C 239.50 373.89 232.06 378.72 228.25 383.25 C 224.43 387.78 218.56 392.92 214.25 397.25 C 209.94 401.58 204.82 407.35 200.25 411.25 C 195.68 415.15 191.02 422.29 186.25 425.25 C 181.48 428.21 177.30 438.56 172.00 439.00
C 165.87 439.51 160.15 426.68 154.75 423.25 C 149.36 419.82 143.55 411.32 138.25 406.75 C 132.95 402.19 126.83 395.32 121.75 390.25 C 116.68 385.17 109.82 379.05 105.25 373.75 C 100.68 368.45 92.19 362.65 88.75 357.25 C 85.31 351.85 72.49 346.12 73.00 340.00
C 73.45 334.66 83.81 330.52 86.75 325.75 C 89.70 320.98 96.86 316.33 100.75 311.75 C 104.64 307.18 110.43 302.07 114.75 297.75 C 119.08 293.44 124.22 287.57 128.75 283.75 C 133.28 279.93 138.11 272.52 142.75 269.75 C 147.39 266.99 152.00 256.00 157.00 256.00
C 162.11 256.00 165.96 266.05 170.75 269.25 C 175.54 272.45 181.60 280.14 189.00 274.00
C 196.79 267.54 188.62 260.37 185.25 255.75 C 181.88 251.13 171.55 246.35 172.00 241.00
C 172.39 236.35 181.21 232.87 183.75 228.75 C 186.29 224.64 192.43 220.71 195.75 216.75 C 199.07 212.79 204.09 208.34 208.00 205.00
C 229.99 186.21 261.53 194.22 288.00 188.00
C 299.50 200.33 311.71 212.55 324.00 224.00
C 318.19 250.48 325.66 282.08 307.00 304.00
M 157.00 454.00 
C 157.00 458.26 147.67 462.43 145.25 466.25 C 142.82 470.07 136.64 474.68 133.25 478.25 C 129.85 481.82 125.22 487.41 121.00 490.00
C 107.78 498.10 92.30 472.80 82.75 464.25 C 73.20 455.70 56.73 439.41 48.25 429.75 C 39.76 420.09 13.83 404.34 22.00 391.00
C 24.63 386.71 30.18 382.16 33.75 378.75 C 37.32 375.34 41.93 369.20 45.75 366.75 C 49.57 364.31 53.78 355.00 58.00 355.00
C 63.08 355.00 67.55 366.00 72.25 368.75 C 76.94 371.51 81.62 378.92 86.25 382.75 C 90.88 386.58 95.71 392.40 100.25 396.75 C 104.79 401.11 110.42 406.68 114.75 411.25 C 119.09 415.82 124.94 420.58 128.75 425.25 C 132.56 429.91 140.03 434.48 142.75 439.25 C 145.47 444.01 157.00 448.87 157.00 454.00 Z"/>
</g>
<g fill="#FBCA67" fill-opacity="1.00" stroke="None">
<path d="
M 356.00 129.00 
C 338.67 143.84 320.86 161.64 306.00 179.00
C 316.20 187.07 324.27 199.05 335.00 206.00
C 350.06 188.79 369.07 173.75 383.00 156.00
C 373.71 147.55 364.51 138.33 356.00 129.00 Z"/>
</g>
<g fill="#000000" fill-opacity="0.97" stroke="None">
<path d="
M 511.00 147.00 
C 497.00 140.79 491.78 138.28 475.74 135.40 C 459.71 132.52 461.68 157.19 476.25 156.40 C 490.82 155.60 498.01 168.98 511.00 159.00
C 510.68 155.54 510.68 150.44 511.00 147.00 Z"/>
</g>
<g fill="#000000" fill-opacity="0.96" stroke="None">
<path d="
M 483.00 197.00 
C 473.76 191.06 465.55 180.32 457.30 172.71 C 449.06 165.10 437.55 177.37 443.74 185.25 C 449.92 193.13 457.82 203.02 466.75 209.81 C 475.67 216.61 485.53 206.03 483.00 197.00 Z"/>
</g>
<g fill="#89A7BC" fill-opacity="1.00" stroke="None">
<path d="
M 208.00 205.00 
C 196.08 216.92 184.60 229.86 172.00 241.00
C 171.55 246.35 181.88 251.13 185.25 255.75 C 188.62 260.37 196.79 267.54 189.00 274.00
C 191.70 274.35 195.82 280.36 197.75 282.25 C 199.68 284.14 205.59 288.34 206.00 291.00
C 214.78 280.83 231.16 297.23 221.00 306.00
C 223.71 306.42 227.84 312.34 229.75 314.25 C 231.66 316.16 237.65 320.35 238.00 323.00
C 244.45 315.22 251.64 323.39 256.25 326.75 C 260.86 330.12 265.65 340.45 271.00 340.00
C 282.19 327.35 295.13 315.87 307.00 304.00
C 325.66 282.08 318.19 250.48 324.00 224.00
C 311.71 212.55 299.50 200.33 288.00 188.00
C 261.53 194.22 229.99 186.21 208.00 205.00 Z"/>
</g>
<g fill="#000000" fill-opacity="0.96" stroke="None">
<path d="
M 415.00 191.00 
C 401.15 192.35 408.96 211.20 410.81 218.75 C 412.66 226.30 415.37 244.25 427.75 239.80 C 440.13 235.35 431.33 220.58 429.80 212.25 C 428.27 203.91 425.35 189.99 415.00 191.00 Z"/>
</g>
<g fill="#404E58" fill-opacity="1.00" stroke="None">
<path d="
M 172.00 241.00 
C 184.60 229.86 196.08 216.92 208.00 205.00
C 204.09 208.34 199.07 212.79 195.75 216.75 C 192.43 220.71 186.29 224.64 183.75 228.75 C 181.21 232.87 172.39 236.35 172.00 241.00 Z"/>
</g>
<g fill="#7A6232" fill-opacity="1.00" stroke="None">
<path d="
M 73.00 340.00 
C 101.33 312.50 129.55 284.29 157.00 256.00
C 152.00 256.00 147.39 266.99 142.75 269.75 C 138.11 272.52 133.28 279.93 128.75 283.75 C 124.22 287.57 119.08 293.44 114.75 297.75 C 110.43 302.07 104.64 307.18 100.75 311.75 C 96.86 316.33 89.70 320.98 86.75 325.75 C 83.81 330.52 73.45 334.66 73.00 340.00 Z"/>
</g>
<g fill="#FECC68" fill-opacity="1.00" stroke="None">
<path d="
M 73.00 340.00 
C 72.49 346.12 85.31 351.85 88.75 357.25 C 92.19 362.65 100.68 368.45 105.25 373.75 C 109.82 379.05 116.68 385.17 121.75 390.25 C 126.83 395.32 132.95 402.19 138.25 406.75 C 143.55 411.32 149.36 419.82 154.75 423.25 C 160.15 426.68 165.87 439.51 172.00 439.00
C 199.50 410.67 227.71 382.45 256.00 355.00
C 256.00 349.93 245.97 346.04 242.75 341.25 C 239.54 336.45 231.86 330.40 238.00 323.00
C 237.65 320.35 231.66 316.16 229.75 314.25 C 227.84 312.34 223.71 306.42 221.00 306.00
C 211.66 314.06 197.92 300.36 206.00 291.00
C 205.59 288.34 199.68 284.14 197.75 282.25 C 195.82 280.36 191.70 274.35 189.00 274.00
C 181.60 280.14 175.54 272.45 170.75 269.25 C 165.96 266.05 162.11 256.00 157.00 256.00
C 129.55 284.29 101.33 312.50 73.00 340.00 Z"/>
</g>
<g fill="#000000" fill-opacity="1.00" stroke="None">
<path d="
M 206.00 291.00 
C 197.92 300.36 211.66 314.06 221.00 306.00
C 231.16 297.23 214.78 280.83 206.00 291.00 Z"/>
</g>
<g fill="#44535D" fill-opacity="1.00" stroke="None">
<path d="
M 271.00 340.00 
C 275.60 339.62 279.13 330.81 283.25 328.25 C 287.36 325.69 291.28 319.58 295.25 316.25 C 299.21 312.92 303.61 307.96 307.00 304.00
C 295.13 315.87 282.19 327.35 271.00 340.00 Z"/>
</g>
<g fill="#404E58" fill-opacity="1.00" stroke="None">
<path d="
M 22.00 391.00 
C 31.68 377.58 48.54 368.72 58.00 355.00
C 53.78 355.00 49.57 364.31 45.75 366.75 C 41.93 369.20 37.32 375.34 33.75 378.75 C 30.18 382.16 24.63 386.71 22.00 391.00 Z"/>
</g>
<g fill="#89A7BC" fill-opacity="1.00" stroke="None">
<path d="
M 22.00 391.00 
C 13.83 404.34 39.76 420.09 48.25 429.75 C 56.73 439.41 73.20 455.70 82.75 464.25 C 92.30 472.80 107.78 498.10 121.00 490.00
C 134.42 480.32 143.28 463.46 157.00 454.00
C 157.00 448.87 145.47 444.01 142.75 439.25 C 140.03 434.48 132.56 429.91 128.75 425.25 C 124.94 420.58 119.09 415.82 114.75 411.25 C 110.42 406.68 104.79 401.11 100.25 396.75 C 95.71 392.40 90.88 386.58 86.25 382.75 C 81.62 378.92 76.94 371.51 72.25 368.75 C 67.55 366.00 63.08 355.00 58.00 355.00
C 48.54 368.72 31.68 377.58 22.00 391.00 Z"/>
</g>
<g fill="#7E6634" fill-opacity="1.00" stroke="None">
<path d="
M 172.00 439.00 
C 177.30 438.56 181.48 428.21 186.25 425.25 C 191.02 422.29 195.68 415.15 200.25 411.25 C 204.82 407.35 209.94 401.58 214.25 397.25 C 218.56 392.92 224.43 387.78 228.25 383.25 C 232.06 378.72 239.50 373.89 242.25 369.25 C 245.00 364.61 256.00 360.05 256.00 355.00
C 227.71 382.45 199.50 410.67 172.00 439.00 Z"/>
</g>
<g fill="#000000" fill-opacity="0.02" stroke="None">
<path d="
M 0.00 512.00 
L 114.00 512.00
C 89.49 504.93 71.02 479.27 52.25 460.75 C 33.48 442.24 9.48 423.48 0.00 400.00
L 0.00 512.00 Z"/>
</g>
<g fill="#44535D" fill-opacity="1.00" stroke="None">
<path d="
M 121.00 490.00 
C 125.22 487.41 129.85 481.82 133.25 478.25 C 136.64 474.68 142.82 470.07 145.25 466.25 C 147.67 462.43 157.00 458.26 157.00 454.00
C 143.28 463.46 134.42 480.32 121.00 490.00 Z"/>
</g>
</svg>