<svg xmlns="http://www.w3.org/2000/svg" xmlns:v="https://svgstorm.com"
viewBox = "0 0 512 512"
width="512"
height="512">
<g fill="None" fill-opacity="0.0" stroke="#000000" stroke-opacity="0.00" stroke-width="0.3"><path d="
M 0.00 160.00 
C 6.00 160.00 12.00 160.00 18.00 160.00
C 22.43 157.48 22.29 146.34 25.92 141.92 C 29.56 137.51 32.09 129.65 35.75 124.75 C 39.42 119.86 42.25 113.12 46.25 108.25 C 50.26 103.39 53.61 97.51 57.77 92.77 C 61.93 88.03 65.57 83.62 70.25 79.25 C 74.93 74.88 79.01 70.08 83.75 65.75 C 88.49 61.42 93.29 57.42 98.25 53.25 C 103.21 49.08 108.99 46.17 114.23 42.23 C 119.47 38.29 125.32 35.29 131.08 32.08 C 136.83 28.87 141.79 25.64 148.08 23.08 C 154.36 20.51 160.49 17.52 167.08 15.08 C 173.66 12.63 180.73 10.82 187.68 8.68 C 194.62 6.54 202.33 5.18 209.67 3.67 C 217.01 2.16 226.01 1.67 233.00 0.00
L 0.00 0.00
L 0.00 160.00 Z"/>
</g>
<g fill="None" fill-opacity="0.0" stroke="#FFEA00" stroke-opacity="1.00" stroke-width="0.3"><path d="
M 18.00 160.00 
C 43.33 160.00 68.67 160.00 94.00 160.00
C 154.33 160.00 214.67 160.00 275.00 160.00
C 310.00 160.00 345.00 160.00 380.00 160.00
C 382.11 151.73 383.17 143.68 383.99 134.99 C 384.82 126.31 383.15 114.92 382.22 106.78 C 381.29 98.64 378.88 91.04 376.07 83.93 C 373.27 76.81 370.58 69.62 366.69 63.31 C 362.81 56.99 359.31 51.83 354.70 46.30 C 350.08 40.77 344.66 36.45 339.75 31.25 C 334.84 26.04 328.83 22.76 322.92 19.08 C 317.01 15.40 309.64 10.90 302.93 9.07 C 296.22 7.25 286.53 2.31 283.00 1.00
C 281.71 0.97 280.28 0.85 279.00 1.00
C 276.40 1.30 271.61 2.16 269.00 0.00
L 233.00 0.00
C 226.01 1.67 217.01 2.16 209.67 3.67 C 202.33 5.18 194.62 6.54 187.68 8.68 C 180.73 10.82 173.66 12.63 167.08 15.08 C 160.49 17.52 154.36 20.51 148.08 23.08 C 141.79 25.64 136.83 28.87 131.08 32.08 C 125.32 35.29 119.47 38.29 114.23 42.23 C 108.99 46.17 103.21 49.08 98.25 53.25 C 93.29 57.42 88.49 61.42 83.75 65.75 C 79.01 70.08 74.93 74.88 70.25 79.25 C 65.57 83.62 61.93 88.03 57.77 92.77 C 53.61 97.51 50.26 103.39 46.25 108.25 C 42.25 113.12 39.42 119.86 35.75 124.75 C 32.09 129.65 29.56 137.51 25.92 141.92 C 22.29 146.34 22.43 157.48 18.00 160.00 Z"/>
</g>
<g fill="None" fill-opacity="0.0" stroke="#FFCF00" stroke-opacity="0.55" stroke-width="0.3"><path d="
M 279.00 1.00 
C 278.78 0.87 279.00 0.00 279.00 0.00
L 269.00 0.00
C 271.61 2.16 276.40 1.30 279.00 1.00 Z"/>
</g>
<g fill="None" fill-opacity="0.0" stroke="#000000" stroke-opacity="0.00" stroke-width="0.3"><path d="
M 279.00 1.00 
C 280.28 0.85 281.71 0.97 283.00 1.00
C 290.37 1.14 298.88 2.85 306.00 4.00 C 313.12 5.15 319.84 7.61 326.68 9.32 C 333.51 11.03 340.59 13.59 347.07 15.93 C 353.55 18.26 359.11 21.04 365.23 23.77 C 371.35 26.50 377.43 29.64 383.08 32.92 C 388.72 36.21 393.80 39.34 399.08 42.92 C 404.36 46.50 409.81 50.32 414.75 54.25 C 419.68 58.19 424.17 61.91 428.75 66.25 C 433.33 70.58 437.20 74.86 441.75 79.25 C 446.30 83.63 450.69 88.51 454.75 93.25 C 458.81 97.98 461.81 103.43 465.77 108.23 C 469.73 113.03 472.68 119.84 476.30 124.70 C 479.93 129.55 482.05 136.91 485.77 141.23 C 489.49 145.55 489.42 157.39 494.00 160.00
C 500.00 160.00 506.00 160.00 512.00 160.00
L 512.00 0.00
L 279.00 0.00
C 279.00 0.00 278.78 0.87 279.00 1.00 Z"/>
</g>
<g fill="None" fill-opacity="0.0" stroke="#FFCD00" stroke-opacity="0.98" stroke-width="0.3"><path d="
M 380.00 160.00 
C 418.00 160.00 456.00 160.00 494.00 160.00
C 489.42 157.39 489.49 145.55 485.77 141.23 C 482.05 136.91 479.93 129.55 476.30 124.70 C 472.68 119.84 469.73 113.03 465.77 108.23 C 461.81 103.43 458.81 97.98 454.75 93.25 C 450.69 88.51 446.30 83.63 441.75 79.25 C 437.20 74.86 433.33 70.58 428.75 66.25 C 424.17 61.91 419.68 58.19 414.75 54.25 C 409.81 50.32 404.36 46.50 399.08 42.92 C 393.80 39.34 388.72 36.21 383.08 32.92 C 377.43 29.64 371.35 26.50 365.23 23.77 C 359.11 21.04 353.55 18.26 347.07 15.93 C 340.59 13.59 333.51 11.03 326.68 9.32 C 319.84 7.61 313.12 5.15 306.00 4.00 C 298.88 2.85 290.37 1.14 283.00 1.00
C 286.53 2.31 296.22 7.25 302.93 9.07 C 309.64 10.90 317.01 15.40 322.92 19.08 C 328.83 22.76 334.84 26.04 339.75 31.25 C 344.66 36.45 350.08 40.77 354.70 46.30 C 359.31 51.83 362.81 56.99 366.69 63.31 C 370.58 69.62 373.27 76.81 376.07 83.93 C 378.88 91.04 381.29 98.64 382.22 106.78 C 383.15 114.92 384.82 126.31 383.99 134.99 C 383.17 143.68 382.11 151.73 380.00 160.00 Z"/>
</g>
<g fill="None" fill-opacity="0.0" stroke="#46321E" stroke-opacity="1.00" stroke-width="0.3"><path d="
M 0.00 208.00 
C 0.95 210.67 1.92 214.79 2.00 218.00
C 5.67 230.61 10.14 244.21 17.00 256.00
C 43.76 302.03 93.26 323.11 145.00 319.00
C 172.46 316.82 203.78 300.33 222.00 279.00
C 220.74 280.26 218.52 281.09 218.00 283.00
C 175.75 243.91 134.88 201.05 94.00 160.00
C 68.67 160.00 43.33 160.00 18.00 160.00
C 12.00 160.00 6.00 160.00 0.00 160.00
L 0.00 208.00 Z"/>
</g>
<g fill="None" fill-opacity="0.0" stroke="#2C53A7" stroke-opacity="1.00" stroke-width="0.3"><path d="
M 222.00 279.00 
C 228.35 271.57 234.21 264.32 239.00 256.00
C 248.55 239.40 253.77 220.52 256.00 202.00
C 257.86 220.27 263.82 238.36 272.00 255.00
C 275.99 262.56 282.30 270.33 288.00 277.00
C 291.59 280.59 295.46 284.46 299.00 288.00
C 334.75 318.55 382.97 327.65 427.00 312.00
C 420.30 310.78 416.20 299.63 410.25 295.75 C 404.29 291.88 399.04 283.59 393.25 278.75 C 387.45 273.91 381.97 267.00 376.25 261.75 C 370.53 256.50 364.93 250.13 359.25 244.75 C 353.57 239.37 348.44 233.64 342.75 228.25 C 337.06 222.86 331.52 216.53 325.75 211.25 C 319.99 205.97 314.66 199.16 308.75 194.25 C 302.85 189.33 297.95 181.29 291.75 177.25 C 285.55 173.20 281.41 162.36 275.00 160.00
C 214.67 160.00 154.33 160.00 94.00 160.00
C 134.88 201.05 175.75 243.91 218.00 283.00
C 218.52 281.09 220.74 280.26 222.00 279.00 Z"/>
</g>
<g fill="None" fill-opacity="0.0" stroke="#46321E" stroke-opacity="1.00" stroke-width="0.3"><path d="
M 427.00 312.00 
C 454.87 302.09 479.84 282.07 495.00 256.00
C 501.81 244.29 506.59 230.57 510.00 218.00
C 510.86 214.82 510.39 210.60 512.00 208.00
L 512.00 160.00
C 506.00 160.00 500.00 160.00 494.00 160.00
C 456.00 160.00 418.00 160.00 380.00 160.00
C 345.00 160.00 310.00 160.00 275.00 160.00
C 281.41 162.36 285.55 173.20 291.75 177.25 C 297.95 181.29 302.85 189.33 308.75 194.25 C 314.66 199.16 319.99 205.97 325.75 211.25 C 331.52 216.53 337.06 222.86 342.75 228.25 C 348.44 233.64 353.57 239.37 359.25 244.75 C 364.93 250.13 370.53 256.50 376.25 261.75 C 381.97 267.00 387.45 273.91 393.25 278.75 C 399.04 283.59 404.29 291.88 410.25 295.75 C 416.20 299.63 420.30 310.78 427.00 312.00 Z"/>
</g>
<g fill="None" fill-opacity="0.0" stroke="#F7E413" stroke-opacity="1.00" stroke-width="0.3"><path d="
M 239.00 256.00 
C 243.20 254.16 251.89 257.55 256.00 256.00 C 260.11 254.45 269.70 258.75 272.00 255.00
C 263.82 238.36 257.86 220.27 256.00 202.00
C 253.77 220.52 248.55 239.40 239.00 256.00 Z"/>
</g>
<g fill="None" fill-opacity="0.0" stroke="#000000" stroke-opacity="0.00" stroke-width="0.3"><path d="
M 0.00 233.00 
C 0.91 228.68 2.12 222.87 2.00 218.00
C 1.92 214.79 0.95 210.67 0.00 208.00
L 0.00 233.00 Z"/>
</g>
<g fill="None" fill-opacity="0.0" stroke="#000000" stroke-opacity="0.00" stroke-width="0.3"><path d="
M 510.00 218.00 
C 509.80 222.91 510.94 228.75 512.00 233.00
L 512.00 208.00
C 510.39 210.60 510.86 214.82 510.00 218.00 Z"/>
</g>
<g fill="None" fill-opacity="0.0" stroke="#FBE601" stroke-opacity="0.97" stroke-width="0.3"><path d="
M 0.00 233.00 
L 0.00 256.00
C 5.00 257.55 12.22 253.94 17.00 256.00
C 10.14 244.21 5.67 230.61 2.00 218.00
C 2.12 222.87 0.91 228.68 0.00 233.00 Z"/>
</g>
<g fill="None" fill-opacity="0.0" stroke="#FBC900" stroke-opacity="0.97" stroke-width="0.3"><path d="
M 495.00 256.00 
C 499.78 253.94 507.00 257.55 512.00 256.00
L 512.00 249.00
C 510.42 245.73 510.29 239.20 512.00 236.00
L 512.00 233.00
C 510.94 228.75 509.80 222.91 510.00 218.00
C 506.59 230.57 501.81 244.29 495.00 256.00 Z"/>
</g>
<g fill="None" fill-opacity="0.0" stroke="#FECC00" stroke-opacity="0.60" stroke-width="0.3"><path d="
M 512.00 249.00 
L 512.00 236.00
C 510.29 239.20 510.42 245.73 512.00 249.00 Z"/>
</g>
<g fill="None" fill-opacity="0.0" stroke="#FEB301" stroke-opacity="1.00" stroke-width="0.3"><path d="
M 239.00 256.00 
C 234.21 264.32 228.35 271.57 222.00 279.00
C 203.78 300.33 172.46 316.82 145.00 319.00
C 139.53 323.32 140.24 334.20 136.02 340.02 C 131.81 345.85 132.42 357.37 130.00 364.00
C 133.92 360.08 138.85 356.60 142.00 352.00
C 145.03 352.41 147.26 355.74 149.00 358.00
C 210.84 410.85 310.44 414.78 368.00 352.00
C 377.06 357.29 383.47 367.58 392.00 374.00
C 324.78 445.84 202.52 449.06 130.00 384.00
C 125.28 383.24 129.46 398.90 129.98 404.02 C 130.49 409.15 132.87 419.45 134.93 425.07 C 136.98 430.70 139.86 437.71 142.77 443.23 C 145.68 448.74 149.06 454.25 152.75 459.25 C 156.45 464.24 159.91 469.06 164.75 473.25 C 169.60 477.44 172.96 482.40 178.25 485.75 C 183.53 489.11 188.43 493.20 194.08 495.92 C 199.72 498.65 205.95 502.68 212.02 503.98 C 218.10 505.27 226.23 509.80 229.00 511.00
C 230.29 511.12 232.49 510.35 233.00 512.00
L 234.00 512.00
C 236.28 510.46 241.79 510.28 244.00 512.00
L 279.00 512.00
C 398.04 503.85 503.87 397.98 512.00 279.00
L 512.00 256.00
C 507.00 257.55 499.78 253.94 495.00 256.00
C 479.84 282.07 454.87 302.09 427.00 312.00
C 382.97 327.65 334.75 318.55 299.00 288.00
C 295.06 284.63 291.33 280.89 288.00 277.00
C 282.30 270.33 275.99 262.56 272.00 255.00
C 269.70 258.75 260.11 254.45 256.00 256.00 C 251.89 257.55 243.20 254.16 239.00 256.00 Z"/>
</g>
<g fill="None" fill-opacity="0.0" stroke="#FECC00" stroke-opacity="0.99" stroke-width="0.3"><path d="
M 0.00 279.00 
C 8.13 398.01 111.18 499.68 229.00 511.00
C 226.23 509.80 218.10 505.27 212.02 503.98 C 205.95 502.68 199.72 498.65 194.08 495.92 C 188.43 493.20 183.53 489.11 178.25 485.75 C 172.96 482.40 169.60 477.44 164.75 473.25 C 159.91 469.06 156.45 464.24 152.75 459.25 C 149.06 454.25 145.68 448.74 142.77 443.23 C 139.86 437.71 136.98 430.70 134.93 425.07 C 132.87 419.45 130.49 409.15 129.98 404.02 C 129.46 398.90 125.28 383.24 130.00 384.00
C 127.84 381.84 121.84 377.61 121.00 375.00
C 120.35 372.96 127.88 366.12 130.00 364.00
C 132.42 357.37 131.81 345.85 136.02 340.02 C 140.24 334.20 139.53 323.32 145.00 319.00
C 93.26 323.11 43.76 302.03 17.00 256.00
C 12.22 253.94 5.00 257.55 0.00 256.00
L 0.00 279.00 Z"/>
</g>
<g fill="None" fill-opacity="0.0" stroke="#82714A" stroke-opacity="1.00" stroke-width="0.3"><path d="
M 299.00 288.00 
C 295.46 284.46 291.59 280.59 288.00 277.00
C 291.33 280.89 295.06 284.63 299.00 288.00 Z"/>
</g>
<g fill="None" fill-opacity="0.0" stroke="#000000" stroke-opacity="0.00" stroke-width="0.3"><path d="
M 0.00 512.00 
L 233.00 512.00
C 232.49 510.35 230.29 511.12 229.00 511.00
C 111.18 499.68 8.13 398.01 0.00 279.00
L 0.00 512.00 Z"/>
</g>
<g fill="None" fill-opacity="0.0" stroke="#000000" stroke-opacity="0.00" stroke-width="0.3"><path d="
M 279.00 512.00 
L 512.00 512.00
L 512.00 279.00
C 503.87 397.98 398.04 503.85 279.00 512.00 Z"/>
</g>
<g fill="None" fill-opacity="0.0" stroke="#936B11" stroke-opacity="1.00" stroke-width="0.3"><path d="
M 130.00 364.00 
C 127.88 366.12 120.35 372.96 121.00 375.00
C 120.87 371.04 129.36 367.93 131.25 364.25 C 133.13 360.57 140.23 357.03 142.00 353.00
C 145.15 352.96 146.30 357.02 149.00 358.00
C 147.26 355.74 145.03 352.41 142.00 352.00
C 138.85 356.60 133.92 360.08 130.00 364.00 Z"/>
</g>
<g fill="None" fill-opacity="0.0" stroke="#47321E" stroke-opacity="1.00" stroke-width="0.3"><path d="
M 149.00 358.00 
C 146.30 357.02 145.15 352.96 142.00 353.00
C 140.23 357.03 133.13 360.57 131.25 364.25 C 129.36 367.93 120.87 371.04 121.00 375.00
C 121.84 377.61 127.84 381.84 130.00 384.00
C 202.52 449.06 324.78 445.84 392.00 374.00
C 383.47 367.58 377.06 357.29 368.00 352.00
C 310.44 414.78 210.84 410.85 149.00 358.00 Z"/>
</g>
<g fill="None" fill-opacity="0.0" stroke="#FFC900" stroke-opacity="0.44" stroke-width="0.3"><path d="
M 234.00 512.00 
L 244.00 512.00
C 241.79 510.28 236.28 510.46 234.00 512.00 Z"/>
</g>
<g fill="#000000" fill-opacity="0.00" stroke="None">
<path d="
M 0.00 160.00 
C 6.00 160.00 12.00 160.00 18.00 160.00
C 22.43 157.48 22.29 146.34 25.92 141.92 C 29.56 137.51 32.09 129.65 35.75 124.75 C 39.42 119.86 42.25 113.12 46.25 108.25 C 50.26 103.39 53.61 97.51 57.77 92.77 C 61.93 88.03 65.57 83.62 70.25 79.25 C 74.93 74.88 79.01 70.08 83.75 65.75 C 88.49 61.42 93.29 57.42 98.25 53.25 C 103.21 49.08 108.99 46.17 114.23 42.23 C 119.47 38.29 125.32 35.29 131.08 32.08 C 136.83 28.87 141.79 25.64 148.08 23.08 C 154.36 20.51 160.49 17.52 167.08 15.08 C 173.66 12.63 180.73 10.82 187.68 8.68 C 194.62 6.54 202.33 5.18 209.67 3.67 C 217.01 2.16 226.01 1.67 233.00 0.00
L 0.00 0.00
L 0.00 160.00 Z"/>
</g>
<g fill="#FFEA00" fill-opacity="1.00" stroke="None">
<path d="
M 18.00 160.00 
C 43.33 160.00 68.67 160.00 94.00 160.00
C 154.33 160.00 214.67 160.00 275.00 160.00
C 310.00 160.00 345.00 160.00 380.00 160.00
C 382.11 151.73 383.17 143.68 383.99 134.99 C 384.82 126.31 383.15 114.92 382.22 106.78 C 381.29 98.64 378.88 91.04 376.07 83.93 C 373.27 76.81 370.58 69.62 366.69 63.31 C 362.81 56.99 359.31 51.83 354.70 46.30 C 350.08 40.77 344.66 36.45 339.75 31.25 C 334.84 26.04 328.83 22.76 322.92 19.08 C 317.01 15.40 309.64 10.90 302.93 9.07 C 296.22 7.25 286.53 2.31 283.00 1.00
C 281.71 0.97 280.28 0.85 279.00 1.00
C 276.40 1.30 271.61 2.16 269.00 0.00
L 233.00 0.00
C 226.01 1.67 217.01 2.16 209.67 3.67 C 202.33 5.18 194.62 6.54 187.68 8.68 C 180.73 10.82 173.66 12.63 167.08 15.08 C 160.49 17.52 154.36 20.51 148.08 23.08 C 141.79 25.64 136.83 28.87 131.08 32.08 C 125.32 35.29 119.47 38.29 114.23 42.23 C 108.99 46.17 103.21 49.08 98.25 53.25 C 93.29 57.42 88.49 61.42 83.75 65.75 C 79.01 70.08 74.93 74.88 70.25 79.25 C 65.57 83.62 61.93 88.03 57.77 92.77 C 53.61 97.51 50.26 103.39 46.25 108.25 C 42.25 113.12 39.42 119.86 35.75 124.75 C 32.09 129.65 29.56 137.51 25.92 141.92 C 22.29 146.34 22.43 157.48 18.00 160.00 Z"/>
</g>
<g fill="#FFCF00" fill-opacity="0.55" stroke="None">
<path d="
M 279.00 1.00 
C 278.78 0.87 279.00 0.00 279.00 0.00
L 269.00 0.00
C 271.61 2.16 276.40 1.30 279.00 1.00 Z"/>
</g>
<g fill="#000000" fill-opacity="0.00" stroke="None">
<path d="
M 279.00 1.00 
C 280.28 0.85 281.71 0.97 283.00 1.00
C 290.37 1.14 298.88 2.85 306.00 4.00 C 313.12 5.15 319.84 7.61 326.68 9.32 C 333.51 11.03 340.59 13.59 347.07 15.93 C 353.55 18.26 359.11 21.04 365.23 23.77 C 371.35 26.50 377.43 29.64 383.08 32.92 C 388.72 36.21 393.80 39.34 399.08 42.92 C 404.36 46.50 409.81 50.32 414.75 54.25 C 419.68 58.19 424.17 61.91 428.75 66.25 C 433.33 70.58 437.20 74.86 441.75 79.25 C 446.30 83.63 450.69 88.51 454.75 93.25 C 458.81 97.98 461.81 103.43 465.77 108.23 C 469.73 113.03 472.68 119.84 476.30 124.70 C 479.93 129.55 482.05 136.91 485.77 141.23 C 489.49 145.55 489.42 157.39 494.00 160.00
C 500.00 160.00 506.00 160.00 512.00 160.00
L 512.00 0.00
L 279.00 0.00
C 279.00 0.00 278.78 0.87 279.00 1.00 Z"/>
</g>
<g fill="#FFCD00" fill-opacity="0.98" stroke="None">
<path d="
M 380.00 160.00 
C 418.00 160.00 456.00 160.00 494.00 160.00
C 489.42 157.39 489.49 145.55 485.77 141.23 C 482.05 136.91 479.93 129.55 476.30 124.70 C 472.68 119.84 469.73 113.03 465.77 108.23 C 461.81 103.43 458.81 97.98 454.75 93.25 C 450.69 88.51 446.30 83.63 441.75 79.25 C 437.20 74.86 433.33 70.58 428.75 66.25 C 424.17 61.91 419.68 58.19 414.75 54.25 C 409.81 50.32 404.36 46.50 399.08 42.92 C 393.80 39.34 388.72 36.21 383.08 32.92 C 377.43 29.64 371.35 26.50 365.23 23.77 C 359.11 21.04 353.55 18.26 347.07 15.93 C 340.59 13.59 333.51 11.03 326.68 9.32 C 319.84 7.61 313.12 5.15 306.00 4.00 C 298.88 2.85 290.37 1.14 283.00 1.00
C 286.53 2.31 296.22 7.25 302.93 9.07 C 309.64 10.90 317.01 15.40 322.92 19.08 C 328.83 22.76 334.84 26.04 339.75 31.25 C 344.66 36.45 350.08 40.77 354.70 46.30 C 359.31 51.83 362.81 56.99 366.69 63.31 C 370.58 69.62 373.27 76.81 376.07 83.93 C 378.88 91.04 381.29 98.64 382.22 106.78 C 383.15 114.92 384.82 126.31 383.99 134.99 C 383.17 143.68 382.11 151.73 380.00 160.00 Z"/>
</g>
<g fill="#46321E" fill-opacity="1.00" stroke="None">
<path d="
M 0.00 208.00 
C 0.95 210.67 1.92 214.79 2.00 218.00
C 5.67 230.61 10.14 244.21 17.00 256.00
C 43.76 302.03 93.26 323.11 145.00 319.00
C 172.46 316.82 203.78 300.33 222.00 279.00
C 220.74 280.26 218.52 281.09 218.00 283.00
C 175.75 243.91 134.88 201.05 94.00 160.00
C 68.67 160.00 43.33 160.00 18.00 160.00
C 12.00 160.00 6.00 160.00 0.00 160.00
L 0.00 208.00 Z"/>
</g>
<g fill="#2C53A7" fill-opacity="1.00" stroke="None">
<path d="
M 222.00 279.00 
C 228.35 271.57 234.21 264.32 239.00 256.00
C 248.55 239.40 253.77 220.52 256.00 202.00
C 257.86 220.27 263.82 238.36 272.00 255.00
C 275.99 262.56 282.30 270.33 288.00 277.00
C 291.59 280.59 295.46 284.46 299.00 288.00
C 334.75 318.55 382.97 327.65 427.00 312.00
C 420.30 310.78 416.20 299.63 410.25 295.75 C 404.29 291.88 399.04 283.59 393.25 278.75 C 387.45 273.91 381.97 267.00 376.25 261.75 C 370.53 256.50 364.93 250.13 359.25 244.75 C 353.57 239.37 348.44 233.64 342.75 228.25 C 337.06 222.86 331.52 216.53 325.75 211.25 C 319.99 205.97 314.66 199.16 308.75 194.25 C 302.85 189.33 297.95 181.29 291.75 177.25 C 285.55 173.20 281.41 162.36 275.00 160.00
C 214.67 160.00 154.33 160.00 94.00 160.00
C 134.88 201.05 175.75 243.91 218.00 283.00
C 218.52 281.09 220.74 280.26 222.00 279.00 Z"/>
</g>
<g fill="#46321E" fill-opacity="1.00" stroke="None">
<path d="
M 427.00 312.00 
C 454.87 302.09 479.84 282.07 495.00 256.00
C 501.81 244.29 506.59 230.57 510.00 218.00
C 510.86 214.82 510.39 210.60 512.00 208.00
L 512.00 160.00
C 506.00 160.00 500.00 160.00 494.00 160.00
C 456.00 160.00 418.00 160.00 380.00 160.00
C 345.00 160.00 310.00 160.00 275.00 160.00
C 281.41 162.36 285.55 173.20 291.75 177.25 C 297.95 181.29 302.85 189.33 308.75 194.25 C 314.66 199.16 319.99 205.97 325.75 211.25 C 331.52 216.53 337.06 222.86 342.75 228.25 C 348.44 233.64 353.57 239.37 359.25 244.75 C 364.93 250.13 370.53 256.50 376.25 261.75 C 381.97 267.00 387.45 273.91 393.25 278.75 C 399.04 283.59 404.29 291.88 410.25 295.75 C 416.20 299.63 420.30 310.78 427.00 312.00 Z"/>
</g>
<g fill="#F7E413" fill-opacity="1.00" stroke="None">
<path d="
M 239.00 256.00 
C 243.20 254.16 251.89 257.55 256.00 256.00 C 260.11 254.45 269.70 258.75 272.00 255.00
C 263.82 238.36 257.86 220.27 256.00 202.00
C 253.77 220.52 248.55 239.40 239.00 256.00 Z"/>
</g>
<g fill="#000000" fill-opacity="0.00" stroke="None">
<path d="
M 0.00 233.00 
C 0.91 228.68 2.12 222.87 2.00 218.00
C 1.92 214.79 0.95 210.67 0.00 208.00
L 0.00 233.00 Z"/>
</g>
<g fill="#000000" fill-opacity="0.00" stroke="None">
<path d="
M 510.00 218.00 
C 509.80 222.91 510.94 228.75 512.00 233.00
L 512.00 208.00
C 510.39 210.60 510.86 214.82 510.00 218.00 Z"/>
</g>
<g fill="#FBE601" fill-opacity="0.97" stroke="None">
<path d="
M 0.00 233.00 
L 0.00 256.00
C 5.00 257.55 12.22 253.94 17.00 256.00
C 10.14 244.21 5.67 230.61 2.00 218.00
C 2.12 222.87 0.91 228.68 0.00 233.00 Z"/>
</g>
<g fill="#FBC900" fill-opacity="0.97" stroke="None">
<path d="
M 495.00 256.00 
C 499.78 253.94 507.00 257.55 512.00 256.00
L 512.00 249.00
C 510.42 245.73 510.29 239.20 512.00 236.00
L 512.00 233.00
C 510.94 228.75 509.80 222.91 510.00 218.00
C 506.59 230.57 501.81 244.29 495.00 256.00 Z"/>
</g>
<g fill="#FECC00" fill-opacity="0.60" stroke="None">
<path d="
M 512.00 249.00 
L 512.00 236.00
C 510.29 239.20 510.42 245.73 512.00 249.00 Z"/>
</g>
<g fill="#FEB301" fill-opacity="1.00" stroke="None">
<path d="
M 239.00 256.00 
C 234.21 264.32 228.35 271.57 222.00 279.00
C 203.78 300.33 172.46 316.82 145.00 319.00
C 139.53 323.32 140.24 334.20 136.02 340.02 C 131.81 345.85 132.42 357.37 130.00 364.00
C 133.92 360.08 138.85 356.60 142.00 352.00
C 145.03 352.41 147.26 355.74 149.00 358.00
C 210.84 410.85 310.44 414.78 368.00 352.00
C 377.06 357.29 383.47 367.58 392.00 374.00
C 324.78 445.84 202.52 449.06 130.00 384.00
C 125.28 383.24 129.46 398.90 129.98 404.02 C 130.49 409.15 132.87 419.45 134.93 425.07 C 136.98 430.70 139.86 437.71 142.77 443.23 C 145.68 448.74 149.06 454.25 152.75 459.25 C 156.45 464.24 159.91 469.06 164.75 473.25 C 169.60 477.44 172.96 482.40 178.25 485.75 C 183.53 489.11 188.43 493.20 194.08 495.92 C 199.72 498.65 205.95 502.68 212.02 503.98 C 218.10 505.27 226.23 509.80 229.00 511.00
C 230.29 511.12 232.49 510.35 233.00 512.00
L 234.00 512.00
C 236.28 510.46 241.79 510.28 244.00 512.00
L 279.00 512.00
C 398.04 503.85 503.87 397.98 512.00 279.00
L 512.00 256.00
C 507.00 257.55 499.78 253.94 495.00 256.00
C 479.84 282.07 454.87 302.09 427.00 312.00
C 382.97 327.65 334.75 318.55 299.00 288.00
C 295.06 284.63 291.33 280.89 288.00 277.00
C 282.30 270.33 275.99 262.56 272.00 255.00
C 269.70 258.75 260.11 254.45 256.00 256.00 C 251.89 257.55 243.20 254.16 239.00 256.00 Z"/>
</g>
<g fill="#FECC00" fill-opacity="0.99" stroke="None">
<path d="
M 0.00 279.00 
C 8.13 398.01 111.18 499.68 229.00 511.00
C 226.23 509.80 218.10 505.27 212.02 503.98 C 205.95 502.68 199.72 498.65 194.08 495.92 C 188.43 493.20 183.53 489.11 178.25 485.75 C 172.96 482.40 169.60 477.44 164.75 473.25 C 159.91 469.06 156.45 464.24 152.75 459.25 C 149.06 454.25 145.68 448.74 142.77 443.23 C 139.86 437.71 136.98 430.70 134.93 425.07 C 132.87 419.45 130.49 409.15 129.98 404.02 C 129.46 398.90 125.28 383.24 130.00 384.00
C 127.84 381.84 121.84 377.61 121.00 375.00
C 120.35 372.96 127.88 366.12 130.00 364.00
C 132.42 357.37 131.81 345.85 136.02 340.02 C 140.24 334.20 139.53 323.32 145.00 319.00
C 93.26 323.11 43.76 302.03 17.00 256.00
C 12.22 253.94 5.00 257.55 0.00 256.00
L 0.00 279.00 Z"/>
</g>
<g fill="#82714A" fill-opacity="1.00" stroke="None">
<path d="
M 299.00 288.00 
C 295.46 284.46 291.59 280.59 288.00 277.00
C 291.33 280.89 295.06 284.63 299.00 288.00 Z"/>
</g>
<g fill="#000000" fill-opacity="0.00" stroke="None">
<path d="
M 0.00 512.00 
L 233.00 512.00
C 232.49 510.35 230.29 511.12 229.00 511.00
C 111.18 499.68 8.13 398.01 0.00 279.00
L 0.00 512.00 Z"/>
</g>
<g fill="#000000" fill-opacity="0.00" stroke="None">
<path d="
M 279.00 512.00 
L 512.00 512.00
L 512.00 279.00
C 503.87 397.98 398.04 503.85 279.00 512.00 Z"/>
</g>
<g fill="#936B11" fill-opacity="1.00" stroke="None">
<path d="
M 130.00 364.00 
C 127.88 366.12 120.35 372.96 121.00 375.00
C 120.87 371.04 129.36 367.93 131.25 364.25 C 133.13 360.57 140.23 357.03 142.00 353.00
C 145.15 352.96 146.30 357.02 149.00 358.00
C 147.26 355.74 145.03 352.41 142.00 352.00
C 138.85 356.60 133.92 360.08 130.00 364.00 Z"/>
</g>
<g fill="#47321E" fill-opacity="1.00" stroke="None">
<path d="
M 149.00 358.00 
C 146.30 357.02 145.15 352.96 142.00 353.00
C 140.23 357.03 133.13 360.57 131.25 364.25 C 129.36 367.93 120.87 371.04 121.00 375.00
C 121.84 377.61 127.84 381.84 130.00 384.00
C 202.52 449.06 324.78 445.84 392.00 374.00
C 383.47 367.58 377.06 357.29 368.00 352.00
C 310.44 414.78 210.84 410.85 149.00 358.00 Z"/>
</g>
<g fill="#FFC900" fill-opacity="0.44" stroke="None">
<path d="
M 234.00 512.00 
L 244.00 512.00
C 241.79 510.28 236.28 510.46 234.00 512.00 Z"/>
</g>
</svg>